<svg width="170" height="170" viewBox="0 0 170 170" fill="none" xmlns="http://www.w3.org/2000/svg">
<path d="M39.8605 20.6267C39.8605 21.42 40.4283 22.1 41.2232 22.1C42.0181 22.1 42.586 21.5334 42.586 20.74C42.6995 17.7934 42.1317 14.8467 41.1097 12.1267C40.3147 12.58 39.5198 13.1467 38.6113 13.7134C39.6334 15.8667 39.9741 18.2467 39.8605 20.6267Z" fill="#DAE2E8" fill-opacity="0.7"/>
<path d="M31.9113 19.2667C32.7063 19.2667 33.3876 18.5867 33.3876 17.7934C33.3876 17.68 33.3876 17.5667 33.2741 17.4534C32.5927 18.02 31.9113 18.4734 31.23 19.04C31.3435 19.04 31.4571 19.1534 31.5707 19.1534H31.9113V19.2667Z" fill="#DAE2E8" fill-opacity="0.7"/>
<path d="M57.0081 9.17977C57.2352 9.2931 57.4623 9.40643 57.803 9.40643C58.2573 9.40643 58.7115 9.17977 59.0522 8.72643C59.5064 8.04643 59.2793 7.13977 58.5979 6.79977C57.9166 6.34643 57.3488 5.5531 57.1217 4.75977C56.2132 5.09977 55.3047 5.43977 54.5098 5.77977C54.8504 7.13977 55.7589 8.38643 57.0081 9.17977Z" fill="#DAE2E8" fill-opacity="0.7"/>
<path d="M63.0269 2.94678C62.4591 3.06011 62.0048 3.28678 61.437 3.40011C62.0048 3.51344 62.6862 3.40011 63.0269 2.94678Z" fill="#DAE2E8" fill-opacity="0.7"/>
<path d="M40.9959 30.3732C41.5637 30.7132 42.2451 30.8266 42.9264 30.8266C44.7434 30.8266 46.4468 29.8066 47.4689 28.5599C48.8316 26.8599 49.1723 24.7066 49.6265 23.0066L50.8757 17.1132C50.9892 16.3199 50.535 15.6399 49.7401 15.4132C48.9451 15.2999 48.2638 15.7532 48.0367 16.5466L46.7875 22.4399C46.4468 23.9132 46.1061 25.6132 45.1977 26.7466C44.5163 27.6532 43.1536 28.3332 42.2451 27.7666C41.5637 27.4266 40.6552 27.7666 40.3146 28.4466C39.9739 29.2399 40.3146 30.0332 40.9959 30.3732Z" fill="#DAE2E8" fill-opacity="0.7"/>
<path d="M13.401 45.7867C13.6281 46.3534 14.1959 46.6934 14.7637 46.6934C14.9908 46.6934 15.1044 46.6934 15.3315 46.5801C16.0128 46.2401 16.4671 45.4467 16.1264 44.7667C15.1044 42.2734 15.3315 39.2134 16.6942 36.9467C18.0569 34.5667 20.5553 32.9801 23.2807 32.6401C23.5078 32.6401 23.735 32.6401 24.0756 32.5267C25.0977 32.4134 26.2333 32.3001 27.3689 31.6201C28.3909 31.0534 29.0723 29.8067 29.0723 28.6734C29.0723 27.6534 28.7316 26.8601 27.9367 26.2934C27.2553 25.8401 26.3468 25.9534 25.8926 26.5201C25.4384 27.2001 25.5519 27.9934 26.1197 28.4467C26.1197 28.5601 26.0062 29.0134 25.779 29.1267C25.3248 29.4667 24.5299 29.4667 23.735 29.5801C23.5078 29.5801 23.1671 29.5801 22.94 29.6934C21.918 29.8067 20.8959 30.1467 19.8739 30.6001C17.262 33.6601 14.8772 36.9467 12.7196 40.4601C12.3789 42.2734 12.7196 44.0867 13.401 45.7867Z" fill="#DAE2E8" fill-opacity="0.7"/>
<path d="M33.8417 34.4534C33.9553 34.4534 34.1824 34.4534 34.296 34.3401L34.8638 34.1134C35.6587 33.8867 35.9994 33.0934 35.7722 32.3001C35.5451 31.5067 34.7502 31.1667 33.9553 31.3934L33.3875 31.6201C32.5925 31.8467 32.2519 32.6401 32.479 33.4334C32.5925 34.0001 33.1603 34.4534 33.8417 34.4534Z" fill="#DAE2E8" fill-opacity="0.7"/>
<path d="M10.6755 49.6399C9.88054 49.5266 9.19918 50.0933 9.08562 50.8866L7.95002 59.2733C7.83646 60.0666 8.40426 60.7466 9.19918 60.8599C9.31274 60.8599 9.31274 60.8599 9.4263 60.8599C10.1077 60.8599 10.789 60.2933 10.789 59.6133L11.9246 51.2266C11.9246 50.5466 11.4704 49.7533 10.6755 49.6399Z" fill="#DAE2E8" fill-opacity="0.7"/>
<path d="M31.3435 53.38C31.4571 53.38 31.5707 53.38 31.6842 53.38C32.4791 53.1534 32.9334 52.36 32.7063 51.68C31.9113 48.8467 31.5707 45.7867 31.7978 42.84C31.7978 42.0467 31.23 41.3667 30.435 41.3667C29.6401 41.3667 28.9588 41.9334 28.9588 42.7267C28.7316 46.0134 29.0723 49.3 29.9808 52.4734C30.0944 52.9267 30.6622 53.38 31.3435 53.38Z" fill="#DAE2E8" fill-opacity="0.7"/>
<path d="M57.6895 33.4332C57.8031 33.4332 58.0302 33.4332 58.1438 33.3199L66.4337 30.2599C66.7743 30.1466 67.115 29.8066 67.2286 29.4666C67.3421 29.1266 67.3421 28.7866 67.2286 28.3332L67.0015 27.8799C66.7743 27.1999 65.8659 26.7466 65.1845 27.0866C64.7303 27.1999 64.5031 27.5399 64.3896 27.9932L57.1217 30.7132C56.4404 30.9399 55.9861 31.8466 56.3268 32.5266C56.5539 33.0932 57.1217 33.4332 57.6895 33.4332Z" fill="#DAE2E8" fill-opacity="0.7"/>
<path d="M57.2352 18.2467L63.4811 21.9867C63.7082 22.1 63.9353 22.2134 64.1624 22.2134C64.6167 22.2134 65.0709 21.9867 65.4116 21.5334C65.8658 20.8534 65.6387 19.9467 64.9574 19.6067L58.7115 15.8667C58.0302 15.4134 57.1217 15.64 56.781 16.32C56.3268 17 56.5539 17.9067 57.2352 18.2467Z" fill="#DAE2E8" fill-opacity="0.7"/>
<path d="M74.4965 2.0399C74.7236 2.3799 75.1779 2.60656 75.6321 2.60656C75.9728 2.60656 76.1999 2.49323 76.5406 2.26656L79.1525 0.226562C77.5627 0.339896 75.9728 0.453229 74.2694 0.679896C74.1558 1.13323 74.2694 1.58656 74.4965 2.0399Z" fill="#DAE2E8" fill-opacity="0.7"/>
<path d="M70.8625 10.2C71.2032 10.54 71.5439 10.88 71.8845 11.3333C72.6795 12.3533 73.2473 13.4867 73.5879 14.62C74.0422 15.98 73.9286 17.34 73.3608 18.02C73.1337 18.36 72.5659 18.7 72.1117 18.7C71.8845 18.7 71.5439 18.7 71.4303 18.4733C70.8625 17.9067 69.954 17.9067 69.3862 18.4733C68.8184 19.04 68.8184 19.9467 69.3862 20.5133C70.0676 21.1933 70.9761 21.6467 71.9981 21.6467C72.1117 21.6467 72.2252 21.6467 72.3388 21.6467C73.7015 21.5333 74.9507 20.8533 75.7456 19.72C76.7676 18.2467 76.9948 16.0933 76.3134 13.8267C75.8591 12.24 75.0642 10.7667 74.0422 9.52001C73.7015 9.06668 73.3608 8.72668 72.9066 8.27334C72.3388 7.59334 71.6574 7.02668 71.3167 6.34668C70.8625 5.55334 70.7489 4.42001 71.3167 3.96668C71.8845 3.40001 71.8845 2.49334 71.4303 1.92668C70.8625 1.36001 69.954 1.36001 69.3862 1.81334C67.6828 3.40001 67.9099 5.89334 68.932 7.59334C69.3862 8.72668 70.1811 9.52001 70.8625 10.2Z" fill="#DAE2E8" fill-opacity="0.7"/>
<path d="M47.469 32.1867C46.3334 34.4534 46.2198 37.0601 47.0147 39.2134C47.9232 41.7067 50.1944 43.5201 52.6927 43.7467C52.9199 43.7467 53.147 43.7467 53.3741 43.7467C55.8724 43.7467 58.3708 42.0468 59.0521 39.7801C59.2793 38.9867 58.825 38.1934 58.1436 37.9668C57.3487 37.7401 56.5538 38.1934 56.3267 38.8734C55.8724 40.1201 54.3962 41.0267 53.0334 40.9134C51.5571 40.8001 50.1944 39.6667 49.6266 38.0801C49.0588 36.6067 49.1724 34.7934 49.9673 33.2067C50.6487 31.7334 51.8978 30.3734 53.6012 29.2401C54.2826 28.7867 54.3962 27.8801 53.9419 27.3134C53.4877 26.6334 52.5792 26.5201 52.0114 26.9734C49.9673 28.5601 48.3774 30.2601 47.469 32.1867Z" fill="#DAE2E8" fill-opacity="0.7"/>
<path d="M37.7028 51.4532C37.0215 51.7932 36.7944 52.6999 37.135 53.3799C37.3622 53.8332 37.93 54.1732 38.3842 54.1732C38.6113 54.1732 38.8384 54.1732 39.0656 53.9466C42.1317 52.2466 44.1758 48.9599 44.1758 45.4466C44.1758 43.7466 43.7215 42.3866 42.8131 41.2532C41.6775 39.7799 39.7469 39.2132 38.1571 39.7799C37.3622 40.0066 37.0215 40.7999 37.2486 41.5932C37.4757 42.3866 38.2706 42.7266 39.0656 42.4999C39.5198 42.3866 40.2012 42.6132 40.6554 43.0666C41.2232 43.7466 41.3368 44.7666 41.3368 45.4466C41.2232 47.9399 39.8605 50.3199 37.7028 51.4532Z" fill="#DAE2E8" fill-opacity="0.7"/>
<path d="M16.2397 56.5533C16.4669 56.5533 16.8075 56.6666 17.0347 56.6666C18.6245 56.6666 20.3279 55.7599 21.35 54.2866C22.1449 53.0399 22.5991 51.5666 22.7127 49.5266C22.7127 48.9599 22.7127 48.3933 22.7127 47.8266C22.7127 46.9199 22.7127 46.1266 22.8263 45.3333C23.0534 43.7466 23.6212 42.2733 24.5297 40.9133C24.9839 40.2333 24.8703 39.4399 24.189 38.9866C23.5076 38.5333 22.7127 38.6466 22.2585 39.3266C21.1228 41.0266 20.3279 42.9533 20.1008 44.9933C19.9872 45.8999 19.9872 46.9199 19.9872 47.8266C19.9872 48.3933 19.9872 48.8466 19.9872 49.4133C19.8737 50.8866 19.6466 52.0199 19.0788 52.6999C18.511 53.4933 17.6025 53.9466 16.8075 53.8333C16.0126 53.7199 15.3313 54.1733 15.1041 54.9666C14.9906 55.6466 15.5584 56.4399 16.2397 56.5533Z" fill="#DAE2E8" fill-opacity="0.7"/>
<path d="M6.70076 74.12C9.65333 74.12 12.6059 72.5333 14.1958 69.9267C14.65 69.2467 14.4229 68.34 13.7415 68C13.0601 67.5467 12.1517 67.7733 11.811 68.4533C10.5618 70.38 7.94993 71.5133 5.67872 71.1733C3.97531 70.8333 2.38547 69.7 1.59054 68.1133C1.36342 69.36 1.1363 70.4933 0.90918 71.74C2.04478 72.8733 3.52107 73.5533 5.11092 73.8933C5.67872 74.0067 6.13296 74.12 6.70076 74.12Z" fill="#DAE2E8" fill-opacity="0.7"/>
<path d="M22.9399 57.1201L22.5992 57.4601C22.0314 58.0267 22.0314 58.9334 22.5992 59.5001C22.8263 59.7267 23.2806 59.9534 23.6212 59.9534C23.9619 59.9534 24.3026 59.8401 24.6433 59.5001L24.984 59.1601C25.5518 58.5934 25.5518 57.6867 24.984 57.1201C24.4162 56.5534 23.5077 56.5534 22.9399 57.1201Z" fill="#DAE2E8" fill-opacity="0.7"/>
<path d="M57.0081 24.2534V24.3667C57.0081 25.16 57.6894 25.84 58.4843 25.84C59.2793 25.84 59.9606 25.16 59.9606 24.3667V24.2534C59.9606 23.46 59.2793 22.78 58.4843 22.78C57.6894 22.78 57.0081 23.46 57.0081 24.2534Z" fill="#DAE2E8" fill-opacity="0.7"/>
<path d="M80.8557 9.40668H80.9692C81.6506 9.40668 82.2184 8.95335 82.4455 8.38668C82.6726 7.70668 82.4455 7.02668 81.8777 6.57335C81.6506 6.46001 81.4235 6.34668 81.1964 6.34668C80.9692 6.34668 80.6286 6.34668 80.4014 6.46001C79.7201 6.68668 79.3794 7.36668 79.493 8.16001C79.6065 8.72668 80.1743 9.29335 80.8557 9.40668Z" fill="#DAE2E8" fill-opacity="0.7"/>
<path d="M82.8998 2.83333C83.2405 3.51333 84.149 3.85333 84.8303 3.51333C85.5117 3.17333 85.8524 2.38 85.5117 1.58667C85.5117 1.47333 85.6253 1.36 85.7388 1.24667C85.966 1.02 86.5338 0.906667 87.2151 0.906667C89.3728 0.906667 91.4169 1.7 92.8931 3.28667C93.1203 3.62667 93.5745 3.74 93.9152 3.74C94.2559 3.74 94.5965 3.62667 94.8237 3.4C95.3915 2.83333 95.3915 1.92667 94.9372 1.36C94.5965 1.02 94.2559 0.793333 93.9152 0.453333C91.0762 0.113333 88.1236 0 85.0575 0C84.3761 0 83.6947 0 83.0134 0C82.5591 0.906667 82.5591 2.04 82.8998 2.83333Z" fill="#DAE2E8" fill-opacity="0.7"/>
<path d="M83.0135 22.5534C83.2406 22.6667 83.3542 22.6667 83.5813 22.6667C84.1491 22.6667 84.7169 22.3267 84.944 21.7601L89.2593 10.9934C89.6 10.3134 89.1458 9.40674 88.4644 9.18007C87.783 8.84007 86.8746 9.29341 86.6474 9.97341L82.3321 20.7401C81.9915 21.4201 82.3321 22.3267 83.0135 22.5534Z" fill="#DAE2E8" fill-opacity="0.7"/>
<path d="M72.793 27.4266C71.9981 27.6533 71.6574 28.4466 71.8845 29.24L74.9506 38.9866C75.1778 39.5533 75.7456 40.0066 76.3134 40.0066C76.4269 40.0066 76.654 40.0066 76.7676 39.8933C77.5625 39.6666 77.9032 38.8733 77.6761 38.08L74.61 28.3333C74.3828 27.6533 73.5879 27.2 72.793 27.4266Z" fill="#DAE2E8" fill-opacity="0.7"/>
<path d="M58.7115 54.9666C58.9386 56.2133 59.8471 57.3466 60.9827 57.9133C61.5505 58.1399 62.1183 58.3666 62.6861 58.3666C63.1404 58.3666 63.5946 58.2533 64.0488 58.1399C64.7302 57.7999 65.0709 57.0066 64.7302 56.3266C64.3895 55.6466 63.5946 55.3066 62.9132 55.6466C62.6861 55.7599 62.459 55.6466 62.3454 55.5333C61.8912 55.3066 61.5505 54.8533 61.5505 54.5133C61.3234 53.4933 61.8912 52.3599 62.3454 51.5666C62.6861 50.9999 63.0268 50.5466 63.481 49.9799C63.9353 49.4133 64.3895 48.7333 64.8438 48.1666C66.7743 44.9933 67.115 40.7999 65.7523 37.3999C65.4116 36.7199 64.6166 36.2666 63.9353 36.6066C63.2539 36.9466 62.7997 37.7399 63.1404 38.4199C64.1624 41.1399 63.9353 44.3133 62.459 46.6933C62.1183 47.2599 61.7776 47.7133 61.3234 48.2799C60.8691 48.8466 60.4149 49.4133 60.0742 50.0933C58.7115 51.6799 58.3708 53.3799 58.7115 54.9666Z" fill="#DAE2E8" fill-opacity="0.7"/>
<path d="M49.7403 47.26C48.9453 47.0333 48.264 47.6 48.0368 48.28L45.9928 57.0067C45.7656 57.8 46.3334 58.48 47.0148 58.7067C47.1284 58.7067 47.2419 58.7067 47.3555 58.7067C48.0369 58.7067 48.6047 58.2533 48.7182 57.5733L50.7623 48.8467C50.9894 48.1667 50.5352 47.3733 49.7403 47.26Z" fill="#DAE2E8" fill-opacity="0.7"/>
<path d="M43.7215 65.62L32.8197 59.84C32.1383 59.5 31.2299 59.7267 30.8892 60.4067C30.5485 61.0867 30.7756 61.9934 31.457 62.3334L42.3588 68.1134C42.5859 68.2267 42.813 68.2267 43.0402 68.2267C43.4944 68.2267 44.0622 68 44.2893 67.4334C44.63 66.8667 44.4029 66.0734 43.7215 65.62Z" fill="#DAE2E8" fill-opacity="0.7"/>
<path d="M61.0962 43.9732L61.4368 43.6332C62.0046 43.0665 62.0046 42.1599 61.4368 41.5932C60.869 41.0265 59.9606 41.0265 59.3928 41.5932L59.0521 42.0465C58.4843 42.6132 58.4843 43.5199 59.0521 44.0865C59.2792 44.3132 59.7334 44.4265 60.0741 44.4265C60.4148 44.4265 60.869 44.1999 61.0962 43.9732Z" fill="#DAE2E8" fill-opacity="0.7"/>
<path d="M83.2405 32.2999C84.0354 32.2999 84.7168 31.6199 84.7168 30.8266C84.7168 30.0333 84.0354 29.3533 83.2405 29.3533H83.0134C82.2185 29.3533 81.5371 30.0333 81.5371 30.8266C81.5371 31.6199 82.2185 32.2999 83.0134 32.2999H83.2405Z" fill="#DAE2E8" fill-opacity="0.7"/>
<path d="M98.5713 19.1534C98.7984 19.6067 99.2527 19.8334 99.8205 19.8334C100.048 19.8334 100.388 19.7201 100.615 19.6067C101.297 19.1534 101.524 18.3601 101.07 17.6801L94.4831 7.25339C94.0289 6.57339 93.234 6.34673 92.5526 6.80006C91.8713 7.25339 91.6441 8.04673 92.0984 8.72673L98.5713 19.1534Z" fill="#DAE2E8" fill-opacity="0.7"/>
<path d="M101.751 9.97326C104.476 10.3133 106.975 11.8999 108.337 14.2799C109.132 15.5266 109.473 16.9999 109.359 18.2466C109.246 20.1733 107.883 22.0999 106.18 23.0066C105.498 23.3466 105.158 24.2533 105.498 24.9333C105.726 25.3866 106.293 25.7266 106.748 25.7266C106.975 25.7266 107.202 25.7266 107.315 25.6133C110.041 24.2533 111.858 21.5333 112.085 18.4733C112.198 16.5466 111.744 14.6199 110.722 12.8066C108.905 9.7466 105.612 7.47993 101.978 7.13993C101.183 7.0266 100.502 7.59326 100.388 8.3866C100.388 9.17993 100.956 9.85993 101.751 9.97326Z" fill="#DAE2E8" fill-opacity="0.7"/>
<path d="M88.6915 21.8734C87.6695 24.0268 87.6695 26.5201 88.578 28.7868C89.4864 31.0534 91.417 32.6401 93.5746 32.9801C93.9153 32.9801 94.256 33.0934 94.4831 33.0934C96.7543 33.0934 98.7984 31.7334 99.5933 29.6934C99.8204 29.0134 99.4797 28.1068 98.6848 27.8801C98.0035 27.6534 97.095 27.9934 96.8679 28.7868C96.5272 29.8068 95.1645 30.3734 94.0289 30.2601C92.7797 30.0334 91.6441 29.0134 91.0763 27.7668C90.5085 26.2934 90.5085 24.5934 91.1898 23.2334C91.5305 22.5534 91.1898 21.6468 90.5085 21.3068C89.9407 20.8534 89.0322 21.1934 88.6915 21.8734Z" fill="#DAE2E8" fill-opacity="0.7"/>
<path d="M76.5405 49.6399C75.632 49.2999 74.7236 49.0732 73.5879 49.0732C72.1117 49.1866 70.8625 50.2066 70.5218 51.5666C70.2947 52.3599 70.8625 53.0399 71.5439 53.2666C72.3388 53.4932 73.0201 52.9266 73.2473 52.2466C73.2473 52.1332 73.4744 52.0199 73.8151 52.0199C74.2693 52.0199 74.9507 52.1332 75.632 52.3599C77.449 52.9266 79.266 53.4932 81.1965 53.4932C81.1965 53.4932 81.1965 53.4932 81.3101 53.4932C83.6948 53.4932 85.8525 52.5866 87.1016 50.8866C88.6915 48.8466 88.5779 45.7866 86.8745 44.1999C86.3067 43.6332 85.3982 43.6332 84.8304 44.1999C84.2626 44.7666 84.2626 45.6732 84.8304 46.2399C85.5118 46.9199 85.5118 48.2799 84.8304 49.1866C84.1491 50.0932 82.7863 50.6599 81.1965 50.6599C79.7202 50.6599 78.2439 50.2066 76.5405 49.6399Z" fill="#DAE2E8" fill-opacity="0.7"/>
<path d="M52.1249 65.3934C51.4435 65.0534 50.535 65.2801 50.1944 65.9601C49.8537 66.6401 50.0808 67.5467 50.7622 67.8867C52.4656 68.7934 54.2825 69.3601 55.9859 69.3601C56.7809 69.3601 57.4622 69.2467 58.2572 69.0201C61.0962 68.2267 63.2538 65.9601 63.7081 63.3534C63.8216 62.5601 63.3674 61.8801 62.5724 61.7667C61.7775 61.6534 61.0962 62.1067 60.9826 62.9001C60.7555 64.4867 59.3928 65.8467 57.5758 66.3001C55.9859 66.7534 53.9419 66.4134 52.1249 65.3934Z" fill="#DAE2E8" fill-opacity="0.7"/>
<path d="M23.3941 67.0934C22.7128 67.66 22.7128 68.4534 23.167 69.1334C24.7569 70.9467 26.3467 72.8734 27.2552 75.0267C28.1637 77.2934 28.1637 79.56 27.1416 81.1467C26.2332 82.7334 24.3026 83.64 22.4857 83.4134C21.6907 83.3 21.0094 83.8667 20.8958 84.66C20.7823 85.4534 21.3501 86.1334 22.145 86.2467C22.3721 86.2467 22.7128 86.2467 22.9399 86.2467C25.5518 86.2467 28.0501 84.8867 29.4129 82.62C30.8891 80.24 31.0027 76.9534 29.64 73.8934C28.6179 71.2867 26.6874 69.1334 25.0976 67.2067C24.8704 66.64 23.962 66.64 23.3941 67.0934Z" fill="#DAE2E8" fill-opacity="0.7"/>
<path d="M2.49906 81.8267C3.06686 81.9401 3.63467 82.5067 3.63467 82.9601C3.52111 83.7534 4.20247 84.4334 4.88383 84.5467H4.99739C5.67876 84.5467 6.36012 83.9801 6.36012 83.3001C6.58724 81.2601 4.88383 79.6734 3.18042 79.2201C2.15838 78.8801 1.13634 78.9934 0.114293 79.1067C0.114293 79.9001 0.000732422 80.9201 0.000732422 81.9401C0.909216 81.7134 1.70414 81.6001 2.49906 81.8267Z" fill="#DAE2E8" fill-opacity="0.7"/>
<path d="M15.3315 78.0867V77.86C15.3315 77.0667 14.6501 76.3867 13.8552 76.3867C13.0603 76.3867 12.3789 77.0667 12.3789 77.86V78.0867C12.3789 78.88 13.0603 79.56 13.8552 79.56C14.6501 79.56 15.3315 78.88 15.3315 78.0867Z" fill="#DAE2E8" fill-opacity="0.7"/>
<path d="M118.104 13.94C119.353 14.5067 120.716 14.7334 122.192 14.7334C124.69 14.7334 127.189 13.94 129.119 12.3534C129.119 12.3534 129.119 12.3534 129.119 12.24C128.211 11.6734 127.302 11.22 126.394 10.6534C124.236 11.9 121.511 12.24 119.126 11.22C116.627 10.2 114.81 7.82003 114.356 5.10003C113.561 4.87336 112.653 4.53336 111.744 4.19336C111.631 4.42003 111.517 4.64669 111.631 4.98669C111.858 8.84003 114.583 12.3534 118.104 13.94Z" fill="#DAE2E8" fill-opacity="0.7"/>
<path d="M33.8418 69.1335C34.069 68.9068 34.2961 68.4535 34.2961 68.1135C34.2961 67.7735 34.1825 67.3201 33.8418 67.0935C33.274 66.5268 32.3655 66.5268 31.7977 67.0935C31.5706 67.3201 31.3435 67.7735 31.3435 68.1135C31.3435 68.4535 31.4571 68.9068 31.7977 69.1335C32.0249 69.3601 32.4791 69.5868 32.8198 69.5868C33.274 69.5868 33.6147 69.4734 33.8418 69.1335Z" fill="#DAE2E8" fill-opacity="0.7"/>
<path d="M35.4316 73.3267C34.6367 73.3267 34.0688 74.0067 34.0688 74.8V75.14C34.0688 75.9333 34.7502 76.5 35.4316 76.5C35.4316 76.5 35.4316 76.5 35.5451 76.5C36.3401 76.5 36.9079 75.82 36.9079 75.0267V74.6867C36.9079 73.8933 36.2265 73.3267 35.4316 73.3267Z" fill="#DAE2E8" fill-opacity="0.7"/>
<path d="M69.8405 43.7467L69.2727 43.9734C68.4778 44.2 68.1371 44.9934 68.3642 45.7867C68.5914 46.3534 69.1592 46.6934 69.727 46.6934C69.8405 46.6934 70.0676 46.6934 70.1812 46.58L70.749 46.3534C71.5439 46.1267 71.8846 45.3334 71.6575 44.54C71.4304 43.86 70.6354 43.52 69.8405 43.7467Z" fill="#DAE2E8" fill-opacity="0.7"/>
<path d="M92.6662 41.5934C92.8933 41.5934 93.234 41.48 93.4611 41.3667L94.0289 41.0267C94.7103 40.5734 94.8239 39.6667 94.3696 39.1C93.9154 38.42 93.0069 38.3067 92.4391 38.76L91.8713 39.1C91.1899 39.5534 91.0764 40.46 91.5306 41.0267C91.7577 41.3667 92.212 41.5934 92.6662 41.5934Z" fill="#DAE2E8" fill-opacity="0.7"/>
<path d="M105.953 18.3601C105.725 17.5668 104.931 17.1134 104.249 17.3401L103.681 17.4534C102.886 17.6801 102.432 18.4734 102.659 19.1534C102.886 19.8334 103.454 20.1734 104.022 20.1734C104.136 20.1734 104.249 20.1734 104.363 20.1734L104.931 20.0601C105.725 19.8334 106.18 19.0401 105.953 18.3601Z" fill="#DAE2E8" fill-opacity="0.7"/>
<path d="M134.456 23.12H134.57C135.251 23.12 135.933 22.5534 135.933 21.8734L136.387 17.2267C135.478 16.5467 134.57 15.98 133.661 15.3L133.094 21.5334C133.094 22.3267 133.661 23.0067 134.456 23.12Z" fill="#DAE2E8" fill-opacity="0.7"/>
<path d="M114.015 29.6934C114.243 29.6934 114.356 29.6934 114.583 29.5801L124.804 25.5001C125.485 25.1601 125.939 24.3668 125.599 23.6868C125.258 23.0068 124.463 22.5535 123.782 22.8935L113.561 26.9734C112.88 27.3134 112.426 28.1068 112.766 28.7868C112.993 29.3534 113.448 29.6934 114.015 29.6934Z" fill="#DAE2E8" fill-opacity="0.7"/>
<path d="M100.956 32.4134C99.3661 36.72 98.2305 41.14 97.5491 45.6733C97.4356 46.4667 98.0034 47.1467 98.7983 47.26C98.9119 47.26 98.9119 47.26 99.0254 47.26C99.7068 47.26 100.388 46.6933 100.388 46.0133C100.956 41.7067 102.092 37.4 103.568 33.4333C103.795 32.7533 103.454 31.8467 102.773 31.62C102.092 31.28 101.297 31.7334 100.956 32.4134Z" fill="#DAE2E8" fill-opacity="0.7"/>
<path d="M90.0541 52.2467C89.2592 52.0201 88.5779 52.5867 88.3507 53.2667C88.0101 54.8534 88.6914 56.6667 90.0541 57.8001C91.3033 58.8201 92.8931 59.2734 93.9152 59.5001C94.9372 59.7267 95.8457 59.8401 96.7542 59.8401C98.0034 59.8401 99.139 59.6134 100.161 59.1601C102.432 58.1401 104.022 55.9867 104.363 53.6067C104.476 52.8134 103.909 52.1334 103.114 52.0201C102.319 51.9067 101.637 52.4734 101.524 53.2667C101.297 54.7401 100.275 56.1001 98.9119 56.6667C97.7762 57.1201 96.3 57.2334 94.3694 56.8934C93.1203 56.6667 92.3253 56.3267 91.7575 55.7601C91.1897 55.3067 90.8491 54.5134 90.9626 53.9467C91.3033 53.1534 90.8491 52.3601 90.0541 52.2467Z" fill="#DAE2E8" fill-opacity="0.7"/>
<path d="M121.624 44.3134C120.034 44.9934 117.99 44.5401 116.854 43.2934C116.4 42.8401 116.059 42.1601 115.719 41.4801C115.378 40.8001 115.037 40.1201 114.47 39.4401C113.22 37.8534 111.403 36.8334 109.473 36.6067C108.678 36.4934 107.997 37.0601 107.883 37.8534C107.77 38.6467 108.337 39.3267 109.132 39.4401C110.381 39.5534 111.517 40.2334 112.312 41.2534C112.653 41.7067 112.993 42.2734 113.334 42.8401C113.788 43.6334 114.129 44.4267 114.81 45.1067C116.173 46.6934 118.104 47.4867 120.148 47.4867C121.056 47.4867 122.078 47.2601 122.987 46.9201C124.236 46.3534 125.144 45.4467 125.485 44.4267C126.053 42.9534 125.599 41.2534 124.349 40.4601C123.668 40.0067 122.76 40.2334 122.419 40.9134C121.965 41.5934 122.192 42.5001 122.873 42.8401C122.987 42.8401 122.987 43.1801 122.987 43.4067C122.532 43.7467 122.192 44.0867 121.624 44.3134Z" fill="#DAE2E8" fill-opacity="0.7"/>
<path d="M119.694 29.9201C117.877 31.2801 116.854 33.2068 116.854 35.1334C116.854 35.9268 117.536 36.4934 118.217 36.4934C119.012 36.4934 119.58 35.8134 119.58 35.0201C119.58 34.0001 120.148 32.9801 121.17 32.1868C122.305 31.3934 123.895 31.0534 125.258 31.2801C126.621 31.5068 127.983 32.3001 128.778 33.4334C129.233 34.1134 130.141 34.2268 130.709 33.7734C131.39 33.3201 131.504 32.4134 131.05 31.8468C129.8 30.0334 127.756 28.9001 125.599 28.5601C123.668 28.1068 121.397 28.6734 119.694 29.9201Z" fill="#DAE2E8" fill-opacity="0.7"/>
<path d="M140.362 27.4266H140.475C141.27 27.4266 141.951 26.7466 141.951 25.9533C141.951 25.16 141.27 24.48 140.475 24.48H140.362C139.567 24.48 138.885 25.16 138.885 25.9533C138.885 26.7466 139.567 27.4266 140.362 27.4266Z" fill="#DAE2E8" fill-opacity="0.7"/>
<path d="M127.189 20.8535C127.416 20.9668 127.529 20.9668 127.756 20.9668C128.324 20.9668 128.778 20.7401 129.233 20.4001C129.8 19.8335 130.028 19.1535 129.8 18.3601C129.573 17.5668 128.778 17.2268 127.983 17.4535C127.529 17.5668 127.302 17.9068 127.075 18.2468C126.734 18.3601 126.394 18.7001 126.28 19.1535C126.053 19.8335 126.507 20.6268 127.189 20.8535Z" fill="#DAE2E8" fill-opacity="0.7"/>
<path d="M77.3355 58.2533C76.5406 58.14 75.8592 58.5933 75.6321 59.3867L72.2253 76.9533C72.1117 77.7466 72.566 78.4266 73.3609 78.6533C73.4744 78.6533 73.588 78.6533 73.588 78.6533C74.2694 78.6533 74.8372 78.2 74.9507 77.52L78.3576 59.9533C78.5847 59.16 78.1304 58.3667 77.3355 58.2533Z" fill="#DAE2E8" fill-opacity="0.7"/>
<path d="M66.8878 69.5867C67.0014 68.7934 66.4336 68.1134 65.6387 68C64.8437 67.8867 64.1624 68.4534 64.0488 69.2467C63.9353 70.9467 63.0268 72.5334 61.664 73.6667C60.3013 74.6867 58.4844 75.14 56.7809 74.9134C55.986 74.8 55.3047 75.2534 55.1911 76.0467C55.0775 76.84 55.5318 77.52 56.3267 77.6334C56.7809 77.7467 57.3487 77.7467 57.803 77.7467C59.8471 77.7467 61.7776 77.0667 63.3675 75.9334C65.298 74.46 66.6607 72.08 66.8878 69.5867Z" fill="#DAE2E8" fill-opacity="0.7"/>
<path d="M45.1978 77.5199C45.8792 80.1266 47.5826 82.3933 49.9673 83.7533C50.5351 84.0933 51.2165 84.4333 51.7843 84.6599C52.3521 84.8866 52.9199 85.2266 53.4877 85.5666C54.1691 86.0199 54.964 86.8133 54.964 87.4933C54.964 87.7199 54.8504 88.0599 54.5098 88.2866C54.3962 88.3999 54.2826 88.3999 54.2826 88.3999C53.4877 88.1733 52.6928 88.5133 52.4657 89.3066C52.2385 89.8733 52.6928 90.6666 53.3741 90.8933C53.7148 91.0066 54.0555 91.0066 54.2826 91.0066C54.964 91.0066 55.6454 90.7799 56.2132 90.3266C57.2352 89.6466 57.803 88.3999 57.803 87.1533C57.803 85.5666 56.6674 83.9799 54.964 82.8466C54.2826 82.3933 53.6013 82.1666 52.9199 81.8266C52.3521 81.5999 51.8979 81.3733 51.3301 81.0333C49.6267 80.0133 48.3775 78.4266 47.9232 76.6133C47.469 74.7999 47.6961 72.7599 48.6046 71.0599C48.9453 70.3799 48.7182 69.4733 48.0368 69.1333C47.3554 68.7933 46.447 69.0199 46.1063 69.6999C44.8571 72.0799 44.5164 74.9133 45.1978 77.5199Z" fill="#DAE2E8" fill-opacity="0.7"/>
<path d="M38.3842 90.2134C38.6113 90.2134 38.7249 90.2134 38.952 90.2134C41.2232 89.9867 43.2673 88.2867 43.8351 86.1334C44.0622 85.34 43.608 84.5467 42.8131 84.4333C42.0182 84.2067 41.2232 84.66 41.1097 85.4534C40.769 86.4734 39.7469 87.38 38.7249 87.4933C37.5893 87.6067 36.4537 86.9267 35.9994 86.02C35.6588 85.34 34.7503 85 34.0689 85.34C33.3876 85.68 33.0469 86.5867 33.3876 87.2667C34.1825 89.08 36.2266 90.2134 38.3842 90.2134Z" fill="#DAE2E8" fill-opacity="0.7"/>
<path d="M10.9025 89.7599C12.3788 88.6266 13.9687 86.4732 13.1737 84.2066C12.9466 83.4132 12.1517 83.0732 11.3568 83.2999C10.5619 83.5266 10.2212 84.3199 10.4483 85.1132C10.6754 85.9066 9.88049 86.9266 9.08557 87.6066C6.58724 89.5332 2.61262 89.5332 0.000732422 87.6066C0.000732422 88.7399 0.114293 89.8732 0.114293 91.0066C1.47702 91.5732 2.9533 91.9132 4.54315 91.9132C6.81436 91.9132 9.08557 91.1199 10.9025 89.7599Z" fill="#DAE2E8" fill-opacity="0.7"/>
<path d="M3.97535 105.513C4.20247 105.513 4.54315 105.4 4.77027 105.287C5.45163 104.833 5.67875 104.04 5.22451 103.36L0.795654 96.22C1.13634 98.7133 1.59058 101.32 2.15838 103.7L2.83974 104.833C2.9533 105.287 3.40754 105.513 3.97535 105.513Z" fill="#DAE2E8" fill-opacity="0.7"/>
<path d="M145.812 33.4333C144.677 36.7199 141.611 39.3266 138.09 39.8933C137.295 40.0066 136.728 40.0066 136.5 39.7799V39.6666C137.068 39.3266 137.295 38.5333 136.955 37.8533C136.614 37.1733 135.819 36.8333 135.024 37.1733C134.229 37.5133 133.661 38.3066 133.548 39.2133C133.434 40.2333 133.889 41.3666 134.57 41.9333C135.251 42.4999 136.16 42.8399 137.295 42.8399C137.636 42.8399 138.09 42.8399 138.545 42.7266C142.973 42.0466 147.062 38.6466 148.538 34.3399C149.106 32.6399 149.333 30.7133 149.106 28.7866C147.289 26.7466 145.472 24.8199 143.541 23.0066C143.655 23.2333 143.655 23.3466 143.882 23.4599C146.153 26.1799 146.948 30.1466 145.812 33.4333Z" fill="#DAE2E8" fill-opacity="0.7"/>
<path d="M130.936 45.1066C130.255 44.7666 129.346 44.9933 129.005 45.6733C127.756 47.8266 127.643 50.66 128.665 52.9267C129.005 53.6067 129.346 54.1733 129.687 54.74C130.141 55.42 130.482 55.9867 130.709 56.6667C131.163 58.2533 130.368 60.0667 128.892 60.86C128.21 61.2 127.87 62.1067 128.21 62.7867C128.438 63.24 129.005 63.58 129.46 63.58C129.687 63.58 129.914 63.58 130.027 63.4667C132.753 62.1067 134.229 58.82 133.321 55.9867C132.98 54.9667 132.526 54.1733 132.072 53.38C131.731 52.9266 131.504 52.36 131.277 51.9066C130.595 50.4333 130.709 48.62 131.504 47.1466C131.844 46.3533 131.617 45.56 130.936 45.1066Z" fill="#DAE2E8" fill-opacity="0.7"/>
<path d="M105.839 49.5266C105.612 50.2066 105.953 51.1133 106.634 51.34C108.678 52.02 110.722 52.8133 112.199 54.1733C113.902 55.76 114.697 58.2533 114.356 60.52C114.243 61.3133 114.81 61.9933 115.492 62.1066C115.605 62.1066 115.605 62.1066 115.719 62.1066C116.4 62.1066 116.968 61.6533 117.082 60.9733C117.649 57.8 116.4 54.4 114.015 52.1333C112.085 50.32 109.587 49.4133 107.429 48.62C106.861 48.3933 106.066 48.7333 105.839 49.5266Z" fill="#DAE2E8" fill-opacity="0.7"/>
<path d="M84.2625 69.9265C85.6252 70.2665 86.9879 70.1532 88.2371 70.0399C89.032 69.9265 89.7134 69.9265 90.3948 69.9265C92.0982 70.0399 93.8016 70.8332 95.0507 72.0799C96.1863 73.3265 96.8677 75.1399 96.8677 76.8399C96.8677 77.6332 97.4355 78.3132 98.2304 78.3132C99.0254 78.3132 99.5932 77.7466 99.5932 76.9532C99.5932 74.4599 98.6847 72.0799 96.9813 70.2665C95.2779 68.4532 92.8931 67.3199 90.5083 67.2065C89.5998 67.2065 88.8049 67.2065 87.8964 67.3199C86.7608 67.4332 85.7388 67.4332 84.8303 67.3199C84.0354 67.0932 83.354 67.5465 83.1269 68.3399C83.0133 69.0199 83.4676 69.8132 84.2625 69.9265Z" fill="#DAE2E8" fill-opacity="0.7"/>
<path d="M104.703 61.7667C104.249 62.1067 104.022 62.6733 104.136 63.24C104.249 63.92 104.817 64.3733 105.498 64.3733H105.612C106.293 64.3733 106.975 63.92 107.088 63.1267C107.202 62.56 106.861 61.9933 106.407 61.6533C105.953 61.4267 105.158 61.4267 104.703 61.7667Z" fill="#DAE2E8" fill-opacity="0.7"/>
<path d="M122.419 56.4399V56.6666C122.419 57.4599 123.1 58.1399 123.895 58.1399C124.69 58.1399 125.372 57.4599 125.372 56.6666V56.4399C125.372 55.6466 124.69 54.9666 123.895 54.9666C123.1 54.9666 122.419 55.6466 122.419 56.4399Z" fill="#DAE2E8" fill-opacity="0.7"/>
<path d="M140.816 49.4133C140.929 49.4133 141.043 49.4133 141.157 49.4133C141.724 49.4133 142.179 49.1867 142.519 48.7333C142.86 48.28 142.973 47.6 142.633 47.0333C142.292 46.3533 141.384 46.0133 140.702 46.4667C140.702 46.4667 140.702 46.4667 140.589 46.4667C140.589 46.4667 140.589 46.4667 140.475 46.4667C139.68 46.58 139.226 47.3733 139.34 48.1667C139.68 48.7333 140.134 49.3 140.816 49.4133Z" fill="#DAE2E8" fill-opacity="0.7"/>
<path d="M96.6406 89.3067C99.7067 89.1934 102.773 87.9467 105.044 85.7934C105.385 85.4534 105.612 84.8867 105.498 84.4334C105.385 83.98 105.044 83.5267 104.476 83.4134L103.454 83.0734C102.659 82.8467 101.864 83.3 101.637 83.98C101.524 84.2067 101.524 84.5467 101.637 84.7734C100.161 85.7934 98.344 86.36 96.527 86.36C94.1423 86.4734 91.7575 85.5667 89.827 84.0934C89.2592 83.64 88.3507 83.64 87.7829 84.32C87.3286 84.8867 87.3286 85.7934 88.01 86.36C90.2812 88.2867 93.2338 89.3067 96.1864 89.3067C96.4135 89.3067 96.527 89.3067 96.6406 89.3067Z" fill="#DAE2E8" fill-opacity="0.7"/>
<path d="M81.7642 70.2666C79.8337 70.6066 78.2438 72.3066 77.9031 74.46C77.5625 76.2733 78.1303 78.0866 78.5845 79.4466C78.6981 79.7866 78.8116 80.24 79.0387 80.58C79.3794 81.6 79.7201 82.5066 79.9472 83.4133C80.515 86.2466 79.0387 89.42 76.5404 91.0066C75.8591 91.46 75.6319 92.2533 76.0862 92.9333C76.3133 93.3866 76.7675 93.6133 77.3353 93.6133C77.5625 93.6133 77.7896 93.5 78.0167 93.3866C81.5371 91.2333 83.4676 86.9266 82.7862 82.96C82.5591 81.8266 82.1049 80.6933 81.7642 79.6733C81.6506 79.3333 81.5371 78.9933 81.4235 78.6533C81.0828 77.6333 80.6286 76.2733 80.8557 75.14C80.9693 74.3466 81.6506 73.3266 82.4455 73.2133C83.2405 73.1 83.6947 72.3066 83.5812 71.5133C83.354 70.72 82.5591 70.1533 81.7642 70.2666Z" fill="#DAE2E8" fill-opacity="0.7"/>
<path d="M67.2286 91.12C65.9794 88.74 65.6387 86.02 66.3201 83.4134C66.5472 82.62 66.0929 81.8267 65.298 81.7134C64.5031 81.4867 63.7082 81.94 63.5946 82.7334C62.6861 86.02 63.1404 89.5334 64.7302 92.48C66.3201 95.4267 69.0455 97.8067 72.2252 98.94C72.3388 98.94 72.5659 99.0534 72.6795 99.0534C73.2473 99.0534 73.8151 98.7134 74.0422 98.1467C74.2693 97.3534 73.9286 96.56 73.1337 96.3334C70.6354 95.3134 68.4777 93.5 67.2286 91.12Z" fill="#DAE2E8" fill-opacity="0.7"/>
<path d="M18.8518 98.7133C19.8739 98.0333 21.2366 97.8066 22.8264 98.1466C24.4163 98.4866 25.8926 99.2799 27.3688 100.073C28.0502 100.413 28.9587 100.187 29.2994 99.5066C29.6401 98.8266 29.4129 97.9199 28.7316 97.5799C27.1417 96.7866 25.4383 95.8799 23.3942 95.4266C21.0095 94.9732 18.7383 95.3133 17.1484 96.5599C15.1043 98.0333 14.3094 100.867 15.3314 103.02C15.5586 103.473 16.1264 103.813 16.5806 103.813C16.8077 103.813 17.0348 103.813 17.1484 103.7C17.8298 103.36 18.1705 102.453 17.8298 101.773C17.4891 100.753 17.9433 99.3933 18.8518 98.7133Z" fill="#DAE2E8" fill-opacity="0.7"/>
<path d="M38.2706 95.4268C37.5892 94.9734 36.6808 95.2001 36.3401 95.8801C35.8858 96.5601 36.113 97.4668 36.7943 97.8068C39.1791 99.2801 42.0181 100.073 44.8571 100.073C47.3554 100.073 49.8538 99.5068 52.0114 98.3734C52.6928 98.0334 52.9199 97.1268 52.5792 96.4468C52.2385 95.7668 51.3301 95.5401 50.6487 95.8801C46.9012 97.8068 42.0181 97.6934 38.2706 95.4268Z" fill="#DAE2E8" fill-opacity="0.7"/>
<path d="M12.9465 94.6335H13.5143C14.3092 94.6335 14.9906 93.9534 14.9906 93.1601C14.9906 92.3668 14.3092 91.6868 13.5143 91.6868H12.9465C12.1516 91.6868 11.4702 92.3668 11.4702 93.1601C11.5838 94.0668 12.1516 94.6335 12.9465 94.6335Z" fill="#DAE2E8" fill-opacity="0.7"/>
<path d="M27.596 107.44C27.8231 107.553 27.9366 107.553 28.1638 107.553C28.7316 107.553 29.1858 107.213 29.4129 106.647L29.5265 106.307C29.8672 105.627 29.5265 104.72 28.8451 104.493C28.1638 104.153 27.2553 104.493 27.0281 105.173L26.801 105.513C26.5739 106.307 26.9146 107.1 27.596 107.44Z" fill="#DAE2E8" fill-opacity="0.7"/>
<path d="M47.696 87.7199L47.1282 88.2866C46.5604 88.8533 46.5604 89.7599 47.1282 90.3266C47.3554 90.5533 47.8096 90.7799 48.1503 90.7799C48.491 90.7799 48.8317 90.6666 49.1723 90.3266L49.7401 89.7599C50.3079 89.1933 50.3079 88.2866 49.7401 87.7199C49.1723 87.1533 48.2638 87.1533 47.696 87.7199Z" fill="#DAE2E8" fill-opacity="0.7"/>
<path d="M70.2946 84.66L70.6353 84.8867C70.8624 85 71.0896 85 71.3167 85C71.8845 85 72.3387 84.66 72.5658 84.2067C72.9065 83.5267 72.6794 82.62 71.8845 82.28L71.5438 82.1667C70.8624 81.8267 69.9539 82.0533 69.6133 82.8467C69.2726 83.5267 69.4997 84.32 70.2946 84.66Z" fill="#DAE2E8" fill-opacity="0.7"/>
<path d="M66.32 62.3333C65.6386 62.7866 65.4115 63.5799 65.8657 64.2599C66.0928 64.7133 66.5471 64.9399 67.1149 64.9399C67.342 64.9399 67.5691 64.8266 67.7962 64.7133L68.7047 64.1466C69.3861 63.6933 69.6132 62.8999 69.159 62.2199C68.7047 61.5399 67.9098 61.3133 67.2284 61.7666L66.32 62.3333Z" fill="#DAE2E8" fill-opacity="0.7"/>
<path d="M86.6473 59.9534C86.0795 60.4067 85.8523 61.2001 86.193 61.8801C86.4201 62.4467 86.9879 62.7867 87.5558 62.7867C87.6693 62.7867 87.7829 62.7867 88.01 62.7867C88.6914 62.5601 89.2592 61.8801 89.1456 61.2001C89.1456 60.9734 89.032 60.7467 89.032 60.6334C88.9185 60.4067 88.8049 60.2934 88.6914 60.1801C88.01 59.5001 87.2151 59.5001 86.6473 59.9534Z" fill="#DAE2E8" fill-opacity="0.7"/>
<path d="M110.154 75.8199V75.4799C110.154 74.6866 109.473 74.0066 108.678 74.0066C107.883 74.0066 107.202 74.6866 107.202 75.4799V75.8199C107.202 76.6133 107.883 77.2933 108.678 77.2933C109.473 77.2933 110.154 76.6133 110.154 75.8199Z" fill="#DAE2E8" fill-opacity="0.7"/>
<path d="M104.59 72.1934L116.287 70.8334C117.082 70.72 117.649 70.04 117.536 69.2467C117.422 68.4534 116.741 67.8867 115.946 68L104.249 69.36C103.454 69.4734 102.887 70.1534 103 70.9467C103.114 71.6267 103.681 72.1934 104.363 72.1934C104.476 72.3067 104.476 72.1934 104.59 72.1934Z" fill="#DAE2E8" fill-opacity="0.7"/>
<path d="M116.514 74.6868C115.832 74.2334 114.924 74.4601 114.583 75.1401C114.129 75.8201 114.356 76.7268 115.037 77.0668C116.741 78.0868 117.876 79.7868 118.331 81.7134C118.671 83.6401 118.217 85.6801 116.968 87.1534C116.741 87.3801 116.514 87.6068 116.287 87.9468C115.719 88.5134 115.151 89.1934 114.697 90.1001C113.902 91.6868 114.015 93.8401 115.719 94.8601C115.946 94.9734 116.173 95.0868 116.514 95.0868C116.627 95.0868 116.741 95.0868 116.854 95.0868C117.195 94.9734 117.536 94.7468 117.763 94.4068L118.217 93.6134C118.558 92.9334 118.331 92.0268 117.649 91.6868C117.536 91.5734 117.422 91.5734 117.309 91.5734C117.309 91.5734 117.309 91.4601 117.422 91.4601C117.649 91.0068 118.104 90.4401 118.558 89.9868C118.785 89.6468 119.126 89.4201 119.353 89.0801C121.056 86.9268 121.737 83.9801 121.283 81.3734C120.602 78.5401 118.898 76.0468 116.514 74.6868Z" fill="#DAE2E8" fill-opacity="0.7"/>
<path d="M132.526 68.34C131.39 69.8133 129.573 70.72 127.756 70.8333C125.939 70.9466 124.009 70.2666 122.759 68.9066C122.192 68.34 121.283 68.34 120.715 68.9066C120.148 69.4733 120.148 70.38 120.715 70.9466C122.419 72.76 124.917 73.78 127.415 73.78C127.529 73.78 127.756 73.78 127.87 73.78C130.482 73.6666 133.093 72.3066 134.683 70.2666C135.138 69.7 135.024 68.7933 134.456 68.2266C133.888 67.5466 132.98 67.66 132.526 68.34Z" fill="#DAE2E8" fill-opacity="0.7"/>
<path d="M142.633 55.08C143.428 55.08 144.222 54.9667 145.017 54.6267C147.402 53.72 148.878 51.68 150.128 50.0934C151.263 48.62 152.512 47.0334 154.102 46.3534C154.784 46.0134 155.124 45.22 154.897 44.54C154.556 43.86 153.762 43.52 153.08 43.7467C150.809 44.7667 149.219 46.6934 147.97 48.28C146.607 49.98 145.585 51.34 143.995 51.9067C142.746 52.36 141.043 52.1334 140.475 51C140.134 50.32 139.339 49.98 138.658 50.2067C137.977 50.5467 137.636 51.34 137.863 52.02C138.658 54.06 140.588 55.08 142.633 55.08Z" fill="#DAE2E8" fill-opacity="0.7"/>
<path d="M90.622 95.0867C90.8492 95.0867 91.0763 95.0867 91.1898 94.9734C91.7576 94.7467 92.2119 94.18 92.2119 93.5C92.2119 92.82 91.8712 92.2534 91.3034 92.0267C90.8491 91.8 90.3949 91.8 90.0542 92.0267C89.6 92.14 89.2593 92.48 89.1457 92.9334C88.9186 93.5 89.1457 94.18 89.6 94.6334C89.8271 94.9734 90.2813 95.0867 90.622 95.0867Z" fill="#DAE2E8" fill-opacity="0.7"/>
<path d="M155.011 39.5533C154.443 40.0066 154.329 40.9132 154.784 41.5932L164.55 54.1732C162.846 49.8666 160.802 45.6732 158.418 41.7066L157.055 39.8932C156.487 39.2132 155.579 39.0999 155.011 39.5533Z" fill="#DAE2E8" fill-opacity="0.7"/>
<path d="M102.432 104.267C102.546 104.267 102.659 104.267 102.773 104.267C103.454 104.267 104.022 103.813 104.136 103.247L108.11 87.72C108.337 86.9267 107.883 86.2467 107.088 86.02C106.293 85.7934 105.612 86.2467 105.385 87.04L101.41 102.567C101.183 103.247 101.637 104.04 102.432 104.267Z" fill="#DAE2E8" fill-opacity="0.7"/>
<path d="M87.8965 110.727C88.1236 110.727 88.3507 110.727 88.5778 110.613C89.2592 110.273 89.4863 109.367 89.1457 108.687L82.5591 96.2199C82.2185 95.5399 81.31 95.3133 80.6286 95.6533C79.9473 95.9933 79.7201 96.8999 80.0608 97.5799L86.6473 110.047C86.8744 110.387 87.4422 110.727 87.8965 110.727Z" fill="#DAE2E8" fill-opacity="0.7"/>
<path d="M59.7335 96.8999C59.0522 96.4466 58.1437 96.6732 57.803 97.3532L52.9199 105.287C52.4657 105.967 52.6928 106.873 53.3742 107.213C53.6013 107.327 53.8284 107.44 54.1691 107.44C54.6233 107.44 55.0776 107.213 55.4182 106.76L60.3013 98.8266C60.642 98.1466 60.4149 97.2399 59.7335 96.8999Z" fill="#DAE2E8" fill-opacity="0.7"/>
<path d="M22.94 115.6C23.3942 115.6 23.8485 115.373 24.1891 114.92C24.6434 114.24 24.4163 113.333 23.7349 112.993C18.6247 109.933 12.606 108.573 6.81439 108.913C6.01946 108.913 5.45166 109.593 5.45166 110.387C5.45166 111.18 6.13302 111.747 6.92795 111.747C12.1517 111.407 17.6026 112.653 22.1451 115.373C22.3722 115.487 22.7129 115.6 22.94 115.6Z" fill="#DAE2E8" fill-opacity="0.7"/>
<path d="M53.1469 112.54C53.1469 111.747 52.5791 111.067 51.7842 111.067C49.0588 110.953 46.3333 110.16 43.835 108.913C43.6079 108.8 43.3807 108.687 43.1536 108.573C42.3587 108.12 41.4502 107.667 40.5417 107.44C38.9519 106.987 37.362 107.1 36.1129 107.78C34.1824 108.913 33.501 111.52 34.523 113.447C34.7502 113.9 35.318 114.24 35.7722 114.24C35.9993 114.24 36.2264 114.24 36.4536 114.127C37.1349 113.787 37.362 112.88 37.0214 112.2C36.6807 111.52 36.9078 110.613 37.5892 110.273C38.157 109.933 38.8383 109.933 39.7468 110.16C40.4282 110.387 41.1095 110.727 41.9045 111.067C42.1316 111.18 42.3587 111.293 42.5858 111.407C45.4248 112.767 48.491 113.673 51.6707 113.787C52.4656 113.9 53.1469 113.333 53.1469 112.54Z" fill="#DAE2E8" fill-opacity="0.7"/>
<path d="M71.4302 109.707C70.6353 109.593 69.954 110.16 69.8404 110.953C69.7268 111.747 70.2946 112.427 71.0896 112.54C71.4302 112.54 71.7709 112.653 72.1116 112.653C75.4049 112.653 78.5845 110.727 79.9473 107.78C81.5371 104.607 80.8558 100.413 78.2439 97.9201C77.6761 97.3535 76.7676 97.3535 76.1998 97.9201C75.632 98.4868 75.632 99.3934 76.1998 99.9601C77.9032 101.66 78.3574 104.493 77.3354 106.647C76.3133 108.573 73.7015 109.933 71.4302 109.707Z" fill="#DAE2E8" fill-opacity="0.7"/>
<path d="M62.9133 106.76C63.7082 106.76 64.3896 106.08 64.3896 105.287V104.153C64.3896 103.36 63.7082 102.68 62.9133 102.68C62.1184 102.68 61.437 103.36 61.437 104.153V105.287C61.5506 106.08 62.1184 106.76 62.9133 106.76Z" fill="#DAE2E8" fill-opacity="0.7"/>
<path d="M105.385 109.933C106.861 109.367 107.997 108.12 108.11 106.76C108.11 105.967 107.543 105.287 106.748 105.287C105.953 105.287 105.271 105.853 105.271 106.647C105.271 106.873 104.931 107.213 104.476 107.327C103.795 107.553 103 107.44 102.319 107.44C100.388 107.327 98.7984 107.213 97.4357 106.533C96.3001 105.967 95.0509 104.833 95.0509 103.587C95.0509 102.793 94.3696 102.227 93.5746 102.227C92.7797 102.227 92.2119 102.907 92.2119 103.7C92.3255 105.967 93.9153 108.007 96.3001 109.027C98.2306 109.933 100.502 110.047 102.205 110.16C102.546 110.16 103 110.16 103.341 110.16C103.909 110.273 104.704 110.16 105.385 109.933Z" fill="#DAE2E8" fill-opacity="0.7"/>
<path d="M130.368 81.94C130.822 82.62 131.731 82.7333 132.299 82.3933C134.116 81.26 136.614 81.1466 138.431 82.28C139.794 83.0733 140.702 84.4333 141.043 86.02C140.589 86.1333 140.248 86.36 140.134 86.8133C139.794 87.4933 140.134 88.4 140.816 88.6266L141.951 89.08C142.178 89.1933 142.292 89.1933 142.519 89.1933C142.746 89.1933 142.973 89.08 143.2 88.9666C143.541 88.74 143.882 88.2866 143.882 87.8333C144.223 84.66 142.519 81.3733 139.794 79.6733C137.068 77.9733 133.321 78.0866 130.709 79.9C130.141 80.3533 129.914 81.26 130.368 81.94Z" fill="#DAE2E8" fill-opacity="0.7"/>
<path d="M125.599 78.6535C126.394 78.6535 127.075 77.9735 127.075 77.1801C127.075 76.3868 126.394 75.7068 125.599 75.7068H125.372C124.577 75.7068 123.895 76.3868 123.895 77.1801C123.895 77.9735 124.577 78.6535 125.372 78.6535H125.599Z" fill="#DAE2E8" fill-opacity="0.7"/>
<path d="M153.535 60.2933C151.831 59.6133 150.014 59.5 148.424 59.84C146.494 60.4066 145.017 61.7666 144.336 63.4666C143.655 65.3933 144.223 67.66 145.699 68.9066C146.267 69.36 147.175 69.36 147.743 68.68C148.197 68.1133 148.197 67.2066 147.516 66.64C146.948 66.1866 146.721 65.1666 146.948 64.3733C147.289 63.58 148.084 62.7866 149.106 62.56C150.128 62.3333 151.263 62.4466 152.399 62.9C153.762 63.4666 154.784 64.4866 155.238 65.62C155.579 66.7533 155.238 68.1133 154.329 68.5666C153.648 69.02 153.421 69.8133 153.875 70.4933C154.102 70.9466 154.557 71.1733 155.124 71.1733C155.351 71.1733 155.579 71.06 155.806 70.9466C157.85 69.8133 158.758 67.0933 157.963 64.7133C157.282 62.9 155.692 61.2 153.535 60.2933Z" fill="#DAE2E8" fill-opacity="0.7"/>
<path d="M147.97 75.0267C147.289 74.6867 146.494 74.3467 145.812 74.1201C144.79 73.6667 143.882 73.3267 143.087 72.8734C141.611 71.9667 140.702 70.8334 140.589 69.7001C140.475 68.9067 139.794 68.3401 138.999 68.4534C138.204 68.5667 137.636 69.2467 137.75 70.0401C138.09 72.0801 139.453 73.8934 141.611 75.2534C142.633 75.8201 143.655 76.2734 144.677 76.7267C145.358 76.9534 146.039 77.2934 146.607 77.6334C150.014 79.3334 152.74 82.3934 153.989 85.9067C154.216 86.4734 154.784 86.8134 155.351 86.8134C155.465 86.8134 155.692 86.8134 155.806 86.7001C156.487 86.4734 156.941 85.5667 156.601 84.8867C155.238 80.5801 152.058 77.0667 147.97 75.0267Z" fill="#DAE2E8" fill-opacity="0.7"/>
<path d="M155.124 54.1733L155.692 54.74C155.919 54.9667 156.26 55.08 156.601 55.08C156.941 55.08 157.396 54.9667 157.623 54.6267C158.191 54.06 158.077 53.1534 157.509 52.5867L156.941 52.02C156.374 51.4534 155.465 51.5667 154.897 52.1333C154.557 52.8133 154.557 53.72 155.124 54.1733Z" fill="#DAE2E8" fill-opacity="0.7"/>
<path d="M163.528 63.2399C163.187 63.9199 163.641 64.8266 164.323 65.0533C165.458 65.5066 166.707 65.7333 168.07 65.8466C167.843 64.8266 167.616 63.9199 167.389 63.0133C166.707 62.8999 166.026 62.7866 165.458 62.5599C164.663 62.1066 163.868 62.5599 163.528 63.2399Z" fill="#DAE2E8" fill-opacity="0.7"/>
<path d="M157.282 74.8C156.601 77.0667 158.077 79.3334 158.645 80.0134C160.802 83.0734 163.641 85.5667 166.935 87.38C167.162 87.4934 167.389 87.4934 167.616 87.4934C168.07 87.4934 168.638 87.2667 168.865 86.7C169.206 86.02 168.979 85.1134 168.297 84.7734C165.345 83.1867 162.847 80.92 161.03 78.3134C160.235 77.0667 159.894 76.16 160.121 75.5934C160.348 74.8 159.894 74.0067 159.213 73.78C158.304 73.6667 157.509 74.0067 157.282 74.8Z" fill="#DAE2E8" fill-opacity="0.7"/>
<path d="M164.891 74.5734C164.55 75.2534 164.891 76.1601 165.686 76.3867C167.162 77.0667 168.638 77.6334 170.001 78.4267C169.887 77.2934 169.774 76.1601 169.66 75.0267C168.638 74.5734 167.73 74.1201 166.708 73.6667C166.026 73.5534 165.231 73.8934 164.891 74.5734Z" fill="#DAE2E8" fill-opacity="0.7"/>
<path d="M122.987 98.2601C123.1 98.9401 123.668 99.5068 124.349 99.5068C124.463 99.5068 124.463 99.5068 124.577 99.5068C125.372 99.3935 125.939 98.7135 125.826 97.9201C125.599 96.5601 126.053 95.2001 126.848 94.0668C128.211 92.3668 130.709 91.5735 132.753 92.1401C134.797 92.8201 136.5 94.7468 136.614 97.0135C136.728 97.8068 137.295 98.3735 138.09 98.3735C138.885 98.2601 139.453 97.5801 139.453 96.9001C139.226 93.5001 136.728 90.5535 133.548 89.5335C130.368 88.6268 126.621 89.7601 124.577 92.4801C123.327 93.9535 122.76 96.1068 122.987 98.2601Z" fill="#DAE2E8" fill-opacity="0.7"/>
<path d="M115.265 100.413C114.583 100.867 114.356 101.66 114.81 102.34C117.082 105.967 119.693 109.253 122.646 112.313C122.873 112.653 123.327 112.767 123.668 112.767C124.009 112.767 124.349 112.653 124.69 112.313C125.258 111.747 125.258 110.84 124.69 110.273C121.851 107.327 119.353 104.153 117.195 100.753C116.741 100.187 115.946 99.9599 115.265 100.413Z" fill="#DAE2E8" fill-opacity="0.7"/>
<path d="M150.809 99.5067C151.263 99.5067 151.604 99.2801 151.945 98.9401L158.304 91.0067C158.758 90.4401 158.645 89.5334 158.077 88.9667C157.509 88.5134 156.601 88.6267 156.033 89.1934L149.673 97.1267C149.219 97.6934 149.333 98.6001 149.9 99.1667C150.241 99.3934 150.582 99.5067 150.809 99.5067Z" fill="#DAE2E8" fill-opacity="0.7"/>
<path d="M31.1163 122.06C31.1163 122.06 31.2298 122.06 31.1163 122.06C31.9112 122.06 32.5926 121.38 32.479 120.587L32.1383 112.087C32.1383 111.293 31.457 110.727 30.662 110.727C29.8671 110.727 29.2993 111.407 29.2993 112.2L29.64 120.7C29.7536 121.493 30.4349 122.06 31.1163 122.06Z" fill="#DAE2E8" fill-opacity="0.7"/>
<path d="M12.0381 114.693C11.4703 114.127 10.5618 114.127 9.99397 114.693L6.58716 118.093C6.92784 119 7.38208 119.907 7.83632 120.813L12.0381 116.62C12.6059 116.167 12.6059 115.26 12.0381 114.693Z" fill="#DAE2E8" fill-opacity="0.7"/>
<path d="M142.633 97.8066C141.838 97.8066 141.156 98.3733 141.156 99.1666C141.156 100.413 140.134 101.66 139.339 102.453C138.885 102.907 138.317 103.36 137.636 103.927C136.955 104.493 136.273 105.06 135.592 105.74C134.456 106.873 133.094 108.8 133.094 111.067C133.094 112.313 133.775 113.673 134.683 114.467C135.478 115.147 136.387 115.6 137.409 115.6C137.522 115.6 137.522 115.6 137.636 115.6C138.431 115.6 138.999 114.92 138.999 114.127C138.999 113.333 138.317 112.767 137.522 112.767C137.182 112.767 136.841 112.54 136.727 112.427C136.387 112.087 136.046 111.52 136.046 110.953C136.046 109.593 137.068 108.347 137.636 107.667C138.204 107.1 138.772 106.647 139.453 106.08C140.021 105.627 140.702 105.06 141.27 104.493C142.973 102.907 143.882 101.093 143.882 99.28C144.109 98.4866 143.428 97.8066 142.633 97.8066Z" fill="#DAE2E8" fill-opacity="0.7"/>
<path d="M143.427 110.273C142.633 110.273 141.951 110.84 141.951 111.633C141.951 112.427 142.519 113.107 143.314 113.107H144.109C144.109 113.107 144.109 113.107 144.222 113.107C145.017 113.107 145.585 112.54 145.585 111.747C145.585 110.953 145.017 110.273 144.222 110.273H143.427Z" fill="#DAE2E8" fill-opacity="0.7"/>
<path d="M165.231 96.1066C164.55 95.7666 163.641 96.1066 163.414 96.9L163.073 97.5799C162.733 98.2599 163.073 99.1666 163.868 99.3933C164.095 99.5066 164.209 99.5066 164.436 99.5066C165.004 99.5066 165.572 99.1666 165.799 98.5999L166.14 97.92C166.253 97.24 165.912 96.4466 165.231 96.1066Z" fill="#DAE2E8" fill-opacity="0.7"/>
<path d="M150.809 87.9466C151.036 87.1533 150.809 86.36 150.014 86.02C149.333 85.5666 148.424 85.7933 147.97 86.36C147.857 86.4733 147.743 86.7 147.629 86.9266C147.516 87.1533 147.516 87.38 147.516 87.6066C147.516 88.4 148.197 88.9666 148.992 89.08C149.106 89.08 149.106 89.08 149.219 89.08C150.014 88.9666 150.582 88.6266 150.809 87.9466Z" fill="#DAE2E8" fill-opacity="0.7"/>
<path d="M158.872 106.193C158.304 105.74 157.736 105.287 157.282 104.72C156.714 104.153 155.919 103.133 156.033 102C156.146 101.207 155.579 100.527 154.784 100.413C153.989 100.3 153.307 100.867 153.194 101.66C153.08 103.36 153.762 105.06 155.238 106.647C155.806 107.213 156.487 107.78 157.055 108.347C157.509 108.8 158.077 109.14 158.418 109.593C160.007 111.18 161.03 113.333 161.37 115.6C161.484 116.28 162.052 116.847 162.733 116.847H162.846C163.641 116.733 164.209 116.053 164.096 115.26C163.755 112.313 162.506 109.593 160.348 107.553C159.894 107.1 159.326 106.647 158.872 106.193Z" fill="#DAE2E8" fill-opacity="0.7"/>
<path d="M73.7015 126.82C73.9287 126.933 74.1558 126.933 74.3829 126.933C74.9507 126.933 75.4049 126.593 75.6321 126.14C75.9728 125.46 75.7456 124.553 74.9507 124.213C70.2947 121.947 66.6608 117.527 65.2981 112.54C65.071 111.747 64.276 111.293 63.5947 111.52C62.7997 111.747 62.3455 112.54 62.5726 113.22C64.1625 119.113 68.3642 124.1 73.7015 126.82Z" fill="#DAE2E8" fill-opacity="0.7"/>
<path d="M85.7389 118.887C86.1931 119.227 86.5338 119.567 86.8745 119.907C87.2151 120.247 87.6694 120.7 88.1236 121.04C90.3948 122.853 93.2338 123.873 96.1864 123.873C96.6406 123.873 97.2085 123.873 97.6627 123.76C98.4576 123.647 99.0254 122.967 98.9119 122.173C98.7983 121.38 98.1169 120.813 97.322 120.927C94.7101 121.267 91.9847 120.473 90.0542 118.773C89.7135 118.433 89.3728 118.093 89.0321 117.753C88.5779 117.3 88.1236 116.96 87.6694 116.507C86.4202 115.487 85.1711 114.92 83.9219 114.92C82.1049 114.807 80.5151 115.827 79.9473 117.413C79.7201 118.093 80.0608 119 80.7422 119.227C81.4236 119.453 82.332 119.113 82.5592 118.433C82.6727 118.093 83.2405 117.753 83.8083 117.867C84.2626 117.98 84.9439 118.32 85.7389 118.887Z" fill="#DAE2E8" fill-opacity="0.7"/>
<path d="M112.198 113.673C112.539 114.24 112.88 114.693 113.22 115.26C114.356 117.3 115.037 119.567 115.151 121.833C115.151 122.627 115.832 123.193 116.514 123.193C117.309 123.193 117.876 122.513 117.876 121.72C117.763 119 116.968 116.28 115.605 113.9C115.265 113.333 114.81 112.767 114.47 112.087C113.902 111.293 113.334 110.5 112.993 109.593C112.312 108.233 112.312 106.873 112.766 105.967C113.107 105.287 112.88 104.38 112.198 104.04C111.517 103.7 110.609 103.927 110.268 104.607C109.359 106.307 109.473 108.573 110.495 110.727C111.063 111.86 111.631 112.767 112.198 113.673Z" fill="#DAE2E8" fill-opacity="0.7"/>
<path d="M131.39 132.487C132.412 133.28 133.661 133.62 134.911 133.62C135.592 133.62 136.387 133.507 136.955 133.167C137.636 132.827 137.977 132.033 137.636 131.24C137.295 130.56 136.5 130.22 135.705 130.56C134.911 130.9 133.889 130.787 132.98 130.107C131.844 129.313 131.049 127.953 131.049 126.48C131.049 125.007 131.731 123.647 132.866 122.853C133.548 122.4 133.661 121.493 133.207 120.927C132.753 120.247 131.844 120.133 131.277 120.587C129.46 121.947 128.324 124.327 128.324 126.593C128.21 128.973 129.46 131.127 131.39 132.487Z" fill="#DAE2E8" fill-opacity="0.7"/>
<path d="M127.075 113.787C126.848 114.467 127.189 115.26 127.87 115.713C128.211 115.94 128.551 116.053 128.892 116.053C129.233 116.053 129.687 115.94 130.028 115.713C130.595 115.26 130.709 114.353 130.255 113.673C130.141 113.447 129.914 113.333 129.687 113.22C129.46 112.993 129.346 112.88 129.005 112.88C127.983 112.653 127.302 113.107 127.075 113.787Z" fill="#DAE2E8" fill-opacity="0.7"/>
<path d="M129.8 101.547C130.027 101.66 130.368 101.773 130.595 101.773C130.822 101.773 131.049 101.66 131.277 101.547C131.731 101.32 132.071 100.867 132.185 100.3C132.185 99.7333 131.844 99.1666 131.39 98.94C130.936 98.6 130.255 98.4866 129.8 98.8266C129.346 99.1666 129.005 99.62 129.005 100.187C129.005 100.753 129.346 101.32 129.8 101.547Z" fill="#DAE2E8" fill-opacity="0.7"/>
<path d="M55.1912 118.433L55.0777 119.227C54.9641 120.02 55.6455 120.7 56.3268 120.813H56.4404C57.1217 120.813 57.8031 120.247 57.8031 119.567L57.9167 118.773C58.0302 117.98 57.3489 117.3 56.6675 117.3C55.9861 117.073 55.3048 117.64 55.1912 118.433Z" fill="#DAE2E8" fill-opacity="0.7"/>
<path d="M40.4283 131.24C40.7689 130.673 40.7689 129.993 40.3147 129.427L39.7469 128.747C39.1791 128.18 38.3842 128.067 37.7028 128.633C37.2486 129.087 37.135 129.767 37.3621 130.22C36.3401 130.9 34.9774 131.127 33.8418 130.9C31.9112 130.673 30.2078 129.54 28.7315 128.52C27.4824 127.613 26.0061 126.48 25.2112 125.007C24.5298 123.647 24.5298 122.173 25.2112 121.153C25.6654 120.473 25.5518 119.68 24.984 119.113C24.3027 118.66 23.5078 118.773 22.94 119.34C21.5772 121.153 21.4637 123.873 22.7128 126.14C23.7349 128.067 25.5518 129.54 27.0281 130.56C28.618 131.693 30.7756 133.053 33.274 133.393C33.7282 133.507 34.0689 133.507 34.5231 133.507C37.0215 133.847 39.1791 132.94 40.4283 131.24Z" fill="#DAE2E8" fill-opacity="0.7"/>
<path d="M17.4891 134.187C18.9654 132.487 19.5332 130.107 18.9654 127.953C18.6247 126.707 18.0569 125.8 17.3755 124.78C16.6942 123.647 16.1264 122.627 16.1264 121.607C16.1264 120.587 16.9213 119.567 17.8298 119.34C18.6247 119.113 19.0789 118.32 18.8518 117.64C18.6247 116.847 17.8298 116.393 17.1484 116.62C14.9908 117.187 13.2874 119.34 13.2874 121.607C13.2874 123.42 14.1958 124.893 14.9908 126.253C15.5586 127.047 16.0128 127.84 16.2399 128.747C16.5806 129.993 16.2399 131.353 15.445 132.373C15.2179 132.6 14.9908 132.827 14.7636 132.94C15.3314 133.733 15.8992 134.527 16.467 135.207C16.8077 134.98 17.1484 134.64 17.4891 134.187Z" fill="#DAE2E8" fill-opacity="0.7"/>
<path d="M83.1269 132.147C84.1489 129.54 83.8082 126.367 82.332 123.987C81.8777 123.307 81.0828 123.08 80.4014 123.533C79.7201 123.987 79.493 124.78 79.9472 125.46C80.9692 127.16 81.1964 129.313 80.515 131.127C79.8336 132.94 78.2438 134.413 76.4268 134.98C75.7455 135.207 75.4048 135.773 75.4048 136.453C75.5183 137.133 76.0861 137.7 76.7675 137.7H77.3353H77.4489C77.9031 137.7 78.3573 137.473 78.5845 137.02C80.6286 136.227 82.332 134.413 83.1269 132.147Z" fill="#DAE2E8" fill-opacity="0.7"/>
<path d="M124.009 128.747C123.441 128.18 122.646 128.067 121.965 128.633C120.829 129.653 119.126 130.22 117.536 129.993C115.946 129.767 114.47 128.973 113.561 127.613C113.334 127.273 113.107 126.82 112.88 126.48C112.426 125.687 111.971 124.893 111.29 124.1C110.382 123.193 109.132 122.74 107.997 122.74C107.088 122.74 106.293 123.193 105.612 123.873C105.044 124.44 105.158 125.347 105.726 125.913C106.293 126.48 107.202 126.367 107.77 125.8C107.77 125.8 107.883 125.687 108.11 125.687C108.451 125.687 109.019 125.913 109.246 126.14C109.7 126.593 110.041 127.16 110.382 127.84C110.609 128.293 110.949 128.747 111.29 129.313C112.653 131.24 114.924 132.6 117.309 132.827C117.649 132.827 117.877 132.827 118.217 132.827C120.261 132.827 122.419 132.033 123.895 130.673C124.463 130.22 124.463 129.313 124.009 128.747Z" fill="#DAE2E8" fill-opacity="0.7"/>
<path d="M151.831 124.553C153.989 123.533 155.578 121.607 156.373 119.453C157.055 117.187 156.941 114.693 155.806 112.653C155.465 111.973 154.556 111.747 153.875 112.087C153.194 112.427 152.967 113.333 153.307 114.013C153.989 115.373 154.216 117.073 153.648 118.547C153.194 120.02 152.058 121.38 150.582 122.06C149.219 122.74 147.289 122.74 146.38 121.607C145.926 121.04 145.017 120.927 144.336 121.38C143.768 121.833 143.655 122.74 144.109 123.42C145.245 124.78 146.834 125.347 148.538 125.347C149.673 125.233 150.809 125.007 151.831 124.553Z" fill="#DAE2E8" fill-opacity="0.7"/>
<path d="M65.2981 126.253C64.5032 126.367 64.049 127.16 64.1625 127.84L66.5473 141.44C66.6609 142.12 67.2287 142.573 67.91 142.573C68.0236 142.573 68.0236 142.573 68.1371 142.573C68.9321 142.46 69.3863 141.667 69.2727 140.987L66.888 127.387C66.7744 126.593 66.0931 126.14 65.2981 126.253Z" fill="#DAE2E8" fill-opacity="0.7"/>
<path d="M93.3474 140.193C93.461 140.193 93.6881 140.307 93.8017 140.307C94.3695 140.307 94.9373 139.967 95.1644 139.4L99.2526 127.5C99.4797 126.707 99.139 125.913 98.3441 125.687C97.5492 125.46 96.7543 125.8 96.5271 126.593L92.439 138.493C92.2118 139.173 92.6661 139.967 93.3474 140.193Z" fill="#DAE2E8" fill-opacity="0.7"/>
<path d="M157.736 123.533L148.538 130.9C147.97 131.353 147.857 132.26 148.311 132.94C148.538 133.28 148.992 133.507 149.446 133.507C149.787 133.507 150.128 133.393 150.355 133.167L159.553 125.8C160.121 125.347 160.235 124.44 159.78 123.76C159.213 123.193 158.304 123.08 157.736 123.533Z" fill="#DAE2E8" fill-opacity="0.7"/>
<path d="M115.378 140.647C114.697 138.153 112.88 136.227 111.29 134.753L106.407 130.107C105.839 129.54 104.931 129.54 104.363 130.107C103.795 130.673 103.795 131.58 104.363 132.147L109.246 136.793C110.836 138.38 112.085 139.627 112.539 141.327C112.88 142.687 112.539 144.16 111.631 145.18C110.949 145.973 110.154 146.427 109.36 146.313C108.678 146.313 107.997 145.747 107.883 145.18C107.77 144.387 107.088 143.82 106.293 143.933C105.498 144.047 104.931 144.727 105.044 145.52C105.271 147.447 107.088 149.147 109.132 149.26C109.246 149.26 109.36 149.26 109.36 149.26C110.949 149.26 112.539 148.467 113.788 147.107C115.265 145.293 115.832 142.8 115.378 140.647Z" fill="#DAE2E8" fill-opacity="0.7"/>
<path d="M144.223 136C143.541 135.547 142.633 135.773 142.292 136.453C140.589 138.947 137.636 140.647 134.57 140.647C131.504 140.647 128.438 139.06 126.848 136.453C126.394 135.773 125.485 135.66 124.917 136C124.236 136.453 124.122 137.36 124.463 137.927C126.621 141.327 130.595 143.367 134.57 143.367C138.658 143.367 142.519 141.213 144.677 137.927C145.131 137.36 144.904 136.453 144.223 136Z" fill="#DAE2E8" fill-opacity="0.7"/>
<path d="M47.3555 129.88V130.22C47.3555 131.013 48.0368 131.693 48.8318 131.693C49.6267 131.693 50.308 131.013 50.308 130.22V129.88C50.308 129.087 49.6267 128.407 48.8318 128.407C48.0368 128.407 47.3555 129.087 47.3555 129.88Z" fill="#DAE2E8" fill-opacity="0.7"/>
<path d="M120.148 143.027C119.353 143.027 118.671 143.707 118.671 144.5C118.671 145.293 119.353 145.973 120.148 145.973H120.488C121.283 145.973 121.965 145.293 121.965 144.5C121.965 143.707 121.283 143.027 120.488 143.027H120.148Z" fill="#DAE2E8" fill-opacity="0.7"/>
<path d="M29.6402 143.933C29.413 142.8 28.8452 141.78 27.9367 140.987C25.8927 139.06 22.5994 138.72 20.1011 139.967C20.7824 140.76 21.3502 141.44 22.0316 142.233C23.3943 141.893 24.8706 142.12 25.8927 143.027C26.3469 143.48 26.6876 143.933 26.6876 144.387C26.8011 144.84 26.6876 145.18 26.3469 145.407C26.1198 145.633 26.0062 145.86 25.8927 146.2C26.4605 146.767 27.0283 147.333 27.5961 147.787C27.8232 147.787 28.0503 147.673 28.1639 147.447C29.413 146.653 29.8673 145.293 29.6402 143.933Z" fill="#DAE2E8" fill-opacity="0.7"/>
<path d="M45.7657 145.86C46.6742 144.953 47.3555 144.16 48.264 144.047C49.2861 143.933 50.5352 144.953 51.5573 145.86C52.1251 146.427 53.0336 146.313 53.6014 145.747C54.1692 145.18 54.0556 144.273 53.4878 143.707C52.4658 142.687 50.4217 140.873 48.0369 141.1C46.1064 141.327 44.9708 142.573 43.8352 143.707C43.1538 144.387 42.586 145.067 41.9046 145.407C40.9962 145.86 39.8606 145.747 39.0656 145.293C38.2707 144.727 37.8165 143.707 37.8165 142.8C37.93 142.007 37.3622 141.327 36.5673 141.213C35.7724 141.1 35.091 141.667 34.9775 142.46C34.7503 144.5 35.7724 146.427 37.4758 147.56C38.3843 148.24 39.5199 148.467 40.6555 148.467C41.564 148.467 42.4724 148.24 43.2674 147.9C44.1759 147.56 45.0843 146.653 45.7657 145.86Z" fill="#DAE2E8" fill-opacity="0.7"/>
<path d="M61.7775 145.52C62.4589 145.52 63.0267 145.067 63.1402 144.387C63.2538 143.593 62.7996 142.913 62.0046 142.687C60.1877 142.347 58.7114 140.533 58.7114 138.72C58.7114 137.927 58.9385 137.02 59.1656 136.113L59.2792 135.773C59.6199 134.64 59.9605 133.28 59.6199 131.807C59.2792 129.993 58.1436 128.633 56.5537 128.18C55.5317 127.953 54.3961 128.18 53.4876 128.86C52.6927 129.427 52.2384 130.333 52.352 131.24C52.352 132.033 53.0334 132.6 53.8283 132.6C54.6232 132.6 55.191 131.92 55.191 131.127C55.191 131.127 55.191 131.013 55.4181 130.9C55.5317 130.787 55.7588 130.787 55.8724 130.787C56.3266 130.9 56.7808 131.467 56.8944 132.147C57.008 133.053 56.7808 134.073 56.5537 134.867L56.4402 135.207C56.0995 136.227 55.8724 137.36 55.8724 138.493C55.8724 141.667 58.3707 144.613 61.4368 145.293C61.6639 145.52 61.6639 145.52 61.7775 145.52Z" fill="#DAE2E8" fill-opacity="0.7"/>
<path d="M63.1403 149.827C64.8437 152.32 67.7963 153.793 70.7489 153.793C71.0896 153.793 71.4302 153.793 71.8845 153.68C75.1777 153.227 78.2439 150.847 79.2659 147.673C79.9473 145.633 79.6066 143.027 77.5625 142.007C76.8811 141.667 75.9727 141.893 75.632 142.687C75.2913 143.367 75.5184 144.273 76.3133 144.613C76.8811 144.84 76.8811 145.973 76.5405 146.88C75.7455 149.033 73.7015 150.733 71.4302 150.96C69.159 151.3 66.7743 150.167 65.4115 148.24C64.9573 147.56 64.0488 147.447 63.481 147.9C62.9132 148.24 62.6861 149.147 63.1403 149.827Z" fill="#DAE2E8" fill-opacity="0.7"/>
<path d="M97.5493 146.993C96.5272 146.54 95.3916 146.2 94.3696 145.86C93.0068 145.407 91.7577 144.953 90.6221 144.387C89.1458 143.593 87.7831 142.233 87.4424 140.647C87.6695 140.987 88.0102 141.1 88.4644 141.213C89.3729 141.327 90.1678 140.76 90.7356 139.967C91.3034 139.06 91.3034 138.04 90.7356 137.133C89.9407 135.773 88.0102 135.433 86.5339 136.34C85.5118 137.02 84.8305 138.153 84.6034 139.513C84.2627 142.913 86.8746 145.633 89.2593 146.88C90.6221 147.673 92.0984 148.127 93.5747 148.58C94.5967 148.92 95.6187 149.26 96.5272 149.6C98.7984 150.62 100.388 152.207 100.615 153.793C100.729 154.473 100.388 155.267 99.934 155.72C99.7069 155.947 99.3662 156.06 99.1391 156.06C98.3442 155.947 97.6628 156.513 97.5493 157.307C97.4357 158.1 98.0035 158.78 98.7984 158.893C98.912 158.893 99.0256 158.893 99.1391 158.893C100.161 158.893 101.07 158.44 101.865 157.647C102.887 156.513 103.454 154.927 103.227 153.34C102.887 150.847 100.843 148.467 97.5493 146.993Z" fill="#DAE2E8" fill-opacity="0.7"/>
<path d="M131.617 146.54C131.504 145.747 130.709 145.293 129.914 145.407C129.119 145.52 128.665 146.313 128.778 147.107C129.005 148.127 128.21 149.147 127.415 149.827C124.463 152.32 119.693 152.433 116.741 149.94C116.173 149.487 115.265 149.487 114.697 150.167C114.242 150.733 114.242 151.64 114.924 152.207C116.968 153.793 119.466 154.7 121.965 154.7C124.576 154.7 127.188 153.793 129.232 152.093C131.163 150.507 131.958 148.467 131.617 146.54Z" fill="#DAE2E8" fill-opacity="0.7"/>
<path d="M144.45 145.973C145.472 144.953 146.494 143.933 147.402 142.913C146.948 143.14 146.494 143.367 146.04 143.707C145.358 144.273 144.79 145.067 144.45 145.973Z" fill="#DAE2E8" fill-opacity="0.7"/>
<path d="M140.021 146.993C139.339 146.767 138.431 147.107 138.204 147.787L136.273 153C137.749 151.867 139.226 150.733 140.588 149.487L140.816 148.807C141.156 148.013 140.702 147.22 140.021 146.993Z" fill="#DAE2E8" fill-opacity="0.7"/>
<path d="M55.191 148.353L45.5384 157.42C44.9706 157.987 44.9706 158.893 45.4248 159.46C45.652 159.8 46.1062 159.913 46.4469 159.913C46.7876 159.913 47.1282 159.8 47.4689 159.573L57.1216 150.507C57.6894 149.94 57.6894 149.033 57.2351 148.467C56.6673 147.787 55.7588 147.787 55.191 148.353Z" fill="#DAE2E8" fill-opacity="0.7"/>
<path d="M88.6914 153.113C88.2372 152.32 87.5558 151.753 86.7609 151.64C85.966 151.527 85.2846 151.98 85.0575 152.773C84.9439 153.567 85.3982 154.247 86.1931 154.473C86.3066 154.473 86.4202 154.813 86.3066 155.04C86.1931 155.493 85.6253 155.833 84.9439 155.947C84.2625 156.06 83.5812 156.06 82.7863 156.173H82.1049C80.9693 156.173 79.6066 156.287 78.471 157.08C76.8811 158.1 75.8591 160.027 76.0862 161.84C76.3133 163.767 77.676 165.353 79.493 165.92C79.6066 165.92 79.7201 166.033 79.9472 166.033C80.5151 166.033 81.0829 165.693 81.31 165.013C81.5371 164.22 81.0829 163.427 80.4015 163.2C79.7201 162.973 79.0388 162.293 78.9252 161.5C78.8116 160.707 79.2659 159.913 79.9472 159.46C80.6286 159.12 81.4235 159.007 82.2185 159.007H82.7863C83.6947 159.007 84.6032 159.007 85.6253 158.78C87.2151 158.327 88.4643 157.307 88.9185 156.06C89.2592 155.04 89.1456 154.02 88.6914 153.113Z" fill="#DAE2E8" fill-opacity="0.7"/>
<path d="M118.217 161.727C116.06 158.667 111.404 157.76 108.337 159.913C105.953 161.613 104.931 164.673 105.498 167.393C106.407 167.167 107.315 166.94 108.224 166.713C107.883 165.127 108.565 163.2 109.927 162.293C111.744 161.047 114.583 161.613 115.832 163.313C116.06 163.653 116.287 163.767 116.627 163.88C117.195 163.653 117.649 163.54 118.217 163.313C118.558 162.86 118.558 162.293 118.217 161.727Z" fill="#DAE2E8" fill-opacity="0.7"/>
<path d="M90.0543 157.42C89.7136 157.307 89.3729 157.307 89.0323 157.42C88.4645 157.647 88.1238 158.327 88.1238 158.893C88.1238 159.573 88.578 160.14 89.2594 160.253C89.3729 160.253 89.4865 160.253 89.7136 160.253C90.1679 160.253 90.6221 160.027 90.9628 159.573C91.3035 159.007 91.3035 158.327 90.9628 157.873C90.7357 157.76 90.395 157.533 90.0543 157.42Z" fill="#DAE2E8" fill-opacity="0.7"/>
<path d="M78.2439 154.36H78.471C79.2659 154.36 79.9473 153.68 79.9473 152.887C79.9473 152.093 79.2659 151.413 78.471 151.413H78.2439C77.4489 151.413 76.7676 152.093 76.7676 152.887C76.8811 153.68 77.4489 154.36 78.2439 154.36Z" fill="#DAE2E8" fill-opacity="0.7"/>
<path d="M40.4282 151.527C39.6333 151.527 38.9519 152.207 38.9519 153V153.227C38.9519 154.02 39.6333 154.7 40.4282 154.7C41.2231 154.7 41.9045 154.02 41.9045 153.227V153C41.7909 152.093 41.2231 151.527 40.4282 151.527Z" fill="#DAE2E8" fill-opacity="0.7"/>
<path d="M29.2993 136.793C28.5044 136.793 27.823 137.473 27.823 138.267V138.493C27.823 139.287 28.5044 139.967 29.2993 139.967C30.0942 139.967 30.7756 139.287 30.7756 138.493V138.267C30.662 137.36 29.9806 136.793 29.2993 136.793Z" fill="#DAE2E8" fill-opacity="0.7"/>
<path d="M123.668 158.893L122.873 159.233C122.192 159.573 121.851 160.48 122.192 161.16C122.192 161.273 122.305 161.387 122.419 161.5C123.441 160.933 124.577 160.48 125.599 159.913C125.599 159.8 125.599 159.687 125.485 159.573C125.144 158.78 124.349 158.44 123.668 158.893Z" fill="#DAE2E8" fill-opacity="0.7"/>
<path d="M55.6455 161.84C55.5319 161.047 54.8506 160.48 54.0556 160.593C52.5793 160.707 51.2166 161.5 50.1946 162.52C51.2166 162.973 52.1251 163.427 53.1472 163.767C53.4878 163.54 53.9421 163.427 54.3963 163.427C55.1912 163.313 55.759 162.633 55.6455 161.84Z" fill="#DAE2E8" fill-opacity="0.7"/>
<path d="M63.5946 156.74C61.5505 158.213 60.7556 161.273 61.8912 163.54C62.2319 164.22 63.0268 164.56 63.8217 164.22C64.5031 163.88 64.8438 163.087 64.5031 162.293C63.9353 161.16 64.3895 159.687 65.298 159.007C66.2065 158.327 67.7963 158.327 68.7048 159.233C69.6133 160.027 69.8404 161.613 69.1591 162.633C68.7048 163.313 68.9319 164.22 69.6133 164.56C69.8404 164.673 70.0675 164.787 70.4082 164.787C70.8625 164.787 71.3167 164.56 71.6574 164.107C73.0201 161.953 72.5659 158.893 70.7489 157.193C68.7048 155.493 65.6387 155.267 63.5946 156.74Z" fill="#DAE2E8" fill-opacity="0.7"/>
<path d="M89.8269 167.28C90.1676 167.167 90.6218 167.28 91.0761 167.28C91.5303 167.393 92.0981 167.393 92.6659 167.393C93.8015 167.28 94.9371 166.6 95.3914 165.693C95.8456 165.013 95.8456 164.107 95.5049 163.427C95.1643 162.747 94.3693 162.407 93.5744 162.747C92.8931 163.087 92.6659 163.767 92.7795 164.447C92.6659 164.56 92.4388 164.673 92.3253 164.673C91.9846 164.673 91.6439 164.673 91.1896 164.56C90.5083 164.447 89.8269 164.447 89.032 164.56C86.9879 165.013 85.9659 166.713 85.0574 167.96C84.8303 168.3 84.6031 168.64 84.376 168.98C84.1489 169.32 83.8082 169.66 83.4675 170C83.9218 170 84.376 170 84.9438 170C85.7387 170 86.4201 170 87.215 169.887C87.3286 169.773 87.4421 169.66 87.4421 169.433C88.3506 168.527 89.032 167.507 89.8269 167.28Z" fill="#DAE2E8" fill-opacity="0.7"/>
<path d="M118.671 115.487L118.444 115.713C117.876 116.28 117.876 117.187 118.444 117.753C118.671 117.98 119.126 118.207 119.466 118.207C119.807 118.207 120.148 118.093 120.488 117.753L120.715 117.527C121.283 116.96 121.283 116.053 120.715 115.487C120.148 114.92 119.239 114.92 118.671 115.487Z" fill="#DAE2E8" fill-opacity="0.7"/>
<path d="M100.615 115.487C100.048 116.053 100.048 116.96 100.615 117.527L100.842 117.753C101.07 117.98 101.524 118.207 101.864 118.207C102.205 118.207 102.546 118.093 102.887 117.753C103.454 117.187 103.454 116.28 102.887 115.713L102.659 115.487C102.092 114.92 101.183 114.92 100.615 115.487Z" fill="#DAE2E8" fill-opacity="0.7"/>
<path d="M39.6332 119.227L39.2926 119.453C38.6112 119.793 38.2705 120.7 38.6112 121.38C38.8383 121.833 39.4061 122.173 39.8604 122.173C40.0875 122.173 40.3146 122.173 40.5417 122.06L40.8824 121.833C41.5638 121.493 41.9044 120.587 41.5638 119.907C41.1095 119.113 40.3146 118.773 39.6332 119.227Z" fill="#DAE2E8" fill-opacity="0.7"/>
</svg>
