<svg width="194" height="123" viewBox="0 0 194 123" fill="none" xmlns="http://www.w3.org/2000/svg">
<g opacity="0.1">
<path d="M174.204 14.2999C168.931 14.2999 166.339 11.0999 163.836 7.8999C161.512 4.8999 159.278 2.0999 154.898 2.0999C150.518 2.0999 148.284 4.8999 145.96 7.8999C143.457 10.9999 140.865 14.2999 135.592 14.2999C130.318 14.2999 127.726 11.0999 125.223 7.8999C122.899 4.8999 120.665 2.0999 116.285 2.0999C111.905 2.0999 109.671 4.8999 107.347 7.8999C104.844 10.9999 102.252 14.2999 96.9788 14.2999C91.7053 14.2999 89.1132 10.9999 86.6999 7.8999C84.376 4.8999 82.1415 2.0999 77.7618 2.0999C73.3821 2.0999 71.1476 4.8999 68.8237 7.8999C66.321 10.9999 63.7289 14.2999 58.4554 14.2999C53.1819 14.2999 50.5899 11.0999 48.1766 7.8999C45.8527 4.8999 43.6181 2.0999 39.2385 2.0999C34.8588 2.0999 32.6242 4.8999 30.3003 7.8999C27.7976 10.9999 25.2056 14.2999 20.0215 14.2999C14.748 14.2999 12.1559 11.0999 9.65322 7.8999C7.32931 4.8999 5.09477 2.0999 0.715088 2.0999V0.899902C5.98859 0.899902 8.58065 4.0999 11.0833 7.2999C13.4072 10.2999 15.6418 13.0999 20.0215 13.0999C24.4011 13.0999 26.6357 10.2999 28.9596 7.2999C31.4623 4.1999 34.0543 0.899902 39.2385 0.899902C44.512 0.899902 47.104 4.0999 49.5173 7.2999C51.8412 10.2999 54.0758 13.0999 58.4554 13.0999C62.8351 13.0999 65.0697 10.2999 67.3936 7.2999C69.8962 4.1999 72.4883 0.899902 77.7618 0.899902C83.0353 0.899902 85.6274 4.0999 88.13 7.2999C90.454 10.2999 92.6885 13.0999 97.0682 13.0999C101.448 13.0999 103.682 10.2999 106.006 7.2999C108.509 4.1999 111.101 0.899902 116.375 0.899902C121.648 0.899902 124.24 4.0999 126.743 7.2999C129.067 10.2999 131.301 13.0999 135.681 13.0999C140.061 13.0999 142.295 10.2999 144.619 7.2999C147.122 4.1999 149.714 0.899902 154.987 0.899902C160.261 0.899902 162.853 4.0999 165.356 7.2999C167.679 10.2999 169.914 13.0999 174.294 13.0999C178.673 13.0999 180.908 10.2999 183.232 7.2999C185.734 4.1999 188.327 0.899902 193.6 0.899902V2.0999C189.22 2.0999 186.986 4.8999 184.662 7.8999C181.98 10.9999 179.478 14.2999 174.204 14.2999Z" fill="#295271"/>
<path d="M174.204 25.1002C168.931 25.1002 166.339 21.9002 163.836 18.7002C161.512 15.7002 159.278 12.9002 154.898 12.9002C150.518 12.9002 148.284 15.7002 145.96 18.7002C143.457 21.8002 140.865 25.1002 135.592 25.1002C130.318 25.1002 127.726 21.9002 125.223 18.7002C122.899 15.7002 120.665 12.9002 116.285 12.9002C111.906 12.9002 109.671 15.7002 107.347 18.7002C104.844 21.8002 102.252 25.1002 96.9788 25.1002C91.7053 25.1002 89.1133 21.9002 86.6106 18.7002C84.2867 15.7002 82.0521 12.9002 77.6725 12.9002C73.2928 12.9002 71.0582 15.7002 68.7343 18.7002C66.2316 21.8002 63.6396 25.1002 58.3661 25.1002C53.0926 25.1002 50.5005 21.9002 48.0872 18.7002C45.7633 15.7002 43.5288 12.9002 39.1491 12.9002C34.7694 12.9002 32.5349 15.7002 30.211 18.7002C27.7083 21.8002 25.1162 25.1002 19.9321 25.1002C14.6586 25.1002 12.0665 21.9002 9.56387 18.7002C7.23995 15.7002 5.00542 12.9002 0.625732 12.9002V11.7002C5.89923 11.7002 8.49129 14.9002 10.994 18.1002C13.3179 21.1002 15.5524 23.9002 19.9321 23.9002C24.3118 23.9002 26.5463 21.1002 28.8702 18.1002C31.3729 15.0002 33.965 11.7002 39.1491 11.7002C44.4226 11.7002 47.0147 14.9002 49.4279 18.1002C51.7519 21.1002 53.9864 23.9002 58.3661 23.9002C62.7458 23.9002 64.9803 21.1002 67.3042 18.1002C69.8069 15.0002 72.399 11.7002 77.6725 11.7002C82.946 11.7002 85.538 14.9002 88.0407 18.1002C90.3646 21.1002 92.5991 23.9002 96.9788 23.9002C101.359 23.9002 103.593 21.1002 105.917 18.1002C108.42 15.0002 111.012 11.7002 116.285 11.7002C121.559 11.7002 124.151 14.9002 126.653 18.1002C128.977 21.1002 131.212 23.9002 135.592 23.9002C139.971 23.9002 142.206 21.1002 144.53 18.1002C147.032 15.0002 149.624 11.7002 154.898 11.7002C160.171 11.7002 162.764 14.9002 165.266 18.1002C167.59 21.1002 169.825 23.9002 174.204 23.9002C178.584 23.9002 180.819 21.1002 183.142 18.1002C185.645 15.0002 188.237 11.7002 193.511 11.7002V12.9002C189.131 12.9002 186.896 15.7002 184.573 18.7002C181.98 21.8002 179.478 25.1002 174.204 25.1002Z" fill="#295271"/>
<path d="M174.204 35.9C168.931 35.9 166.339 32.7 163.836 29.5C161.512 26.5 159.278 23.7 154.898 23.7C150.518 23.7 148.284 26.5 145.96 29.5C143.457 32.6 140.865 35.9 135.592 35.9C130.318 35.9 127.726 32.7 125.223 29.5C122.899 26.5 120.665 23.7 116.285 23.7C111.906 23.7 109.671 26.5 107.347 29.5C104.844 32.6 102.252 35.9 96.9788 35.9C91.7053 35.9 89.1133 32.7 86.6106 29.5C84.2867 26.5 82.0521 23.7 77.6725 23.7C73.2928 23.7 71.0582 26.5 68.7343 29.5C66.2316 32.6 63.6396 35.9 58.3661 35.9C53.0926 35.9 50.5005 32.7 48.0872 29.5C45.7633 26.5 43.5288 23.7 39.1491 23.7C34.7694 23.7 32.5349 26.5 30.211 29.5C27.7083 32.6 25.1162 35.9 19.9321 35.9C14.6586 35.9 12.0665 32.7 9.56387 29.5C7.23995 26.5 5.00542 23.7 0.625732 23.7V22.5C5.89923 22.5 8.49129 25.7 10.994 28.9C13.3179 31.9 15.5524 34.7 19.9321 34.7C24.3118 34.7 26.5463 31.9 28.8702 28.9C31.3729 25.8 33.965 22.5 39.1491 22.5C44.4226 22.5 47.0147 25.7 49.4279 28.9C51.7519 31.9 53.9864 34.7 58.3661 34.7C62.7458 34.7 64.9803 31.9 67.3042 28.9C69.8069 25.8 72.399 22.5 77.6725 22.5C82.946 22.5 85.538 25.7 88.0407 28.9C90.3646 31.9 92.5991 34.7 96.9788 34.7C101.359 34.7 103.593 31.9 105.917 28.9C108.42 25.8 111.012 22.5 116.285 22.5C121.559 22.5 124.151 25.7 126.653 28.9C128.977 31.9 131.212 34.7 135.592 34.7C139.971 34.7 142.206 31.9 144.53 28.9C147.032 25.8 149.624 22.5 154.898 22.5C160.171 22.5 162.764 25.7 165.266 28.9C167.59 31.9 169.825 34.7 174.204 34.7C178.584 34.7 180.819 31.9 183.142 28.9C185.645 25.8 188.237 22.5 193.511 22.5V23.7C189.131 23.7 186.896 26.5 184.573 29.5C181.98 32.6 179.478 35.9 174.204 35.9Z" fill="#295271"/>
<path d="M174.204 46.6998C168.931 46.6998 166.339 43.4998 163.836 40.2998C161.512 37.2998 159.278 34.4998 154.898 34.4998C150.518 34.4998 148.284 37.2998 145.96 40.2998C143.457 43.3998 140.865 46.6998 135.592 46.6998C130.318 46.6998 127.726 43.4998 125.223 40.2998C122.899 37.2998 120.665 34.4998 116.285 34.4998C111.906 34.4998 109.671 37.2998 107.347 40.2998C104.844 43.3998 102.252 46.6998 96.9788 46.6998C91.7053 46.6998 89.1133 43.4998 86.6106 40.2998C84.2867 37.2998 82.0521 34.4998 77.6725 34.4998C73.2928 34.4998 71.0582 37.2998 68.7343 40.2998C66.2316 43.3998 63.6396 46.6998 58.3661 46.6998C53.0926 46.6998 50.5005 43.4998 48.0872 40.2998C45.7633 37.2998 43.5288 34.4998 39.1491 34.4998C34.7694 34.4998 32.5349 37.2998 30.211 40.2998C27.7083 43.3998 25.1162 46.6998 19.9321 46.6998C14.6586 46.6998 12.0665 43.4998 9.56387 40.2998C7.23995 37.2998 5.00542 34.4998 0.625732 34.4998V33.2998C5.89923 33.2998 8.49129 36.4998 10.994 39.6998C13.3179 42.6998 15.5524 45.4998 19.9321 45.4998C24.3118 45.4998 26.5463 42.6998 28.8702 39.6998C31.3729 36.5998 33.965 33.2998 39.1491 33.2998C44.4226 33.2998 47.0147 36.4998 49.4279 39.6998C51.7519 42.6998 53.9864 45.4998 58.3661 45.4998C62.7458 45.4998 64.9803 42.6998 67.3042 39.6998C69.8069 36.5998 72.399 33.2998 77.6725 33.2998C82.946 33.2998 85.538 36.4998 88.0407 39.6998C90.3646 42.6998 92.5991 45.4998 96.9788 45.4998C101.359 45.4998 103.593 42.6998 105.917 39.6998C108.42 36.5998 111.012 33.2998 116.285 33.2998C121.559 33.2998 124.151 36.4998 126.653 39.6998C128.977 42.6998 131.212 45.4998 135.592 45.4998C139.971 45.4998 142.206 42.6998 144.53 39.6998C147.032 36.5998 149.624 33.2998 154.898 33.2998C160.171 33.2998 162.764 36.4998 165.266 39.6998C167.59 42.6998 169.825 45.4998 174.204 45.4998C178.584 45.4998 180.819 42.6998 183.142 39.6998C185.645 36.5998 188.237 33.2998 193.511 33.2998V34.4998C189.131 34.4998 186.896 37.2998 184.573 40.2998C181.98 43.3998 179.478 46.6998 174.204 46.6998Z" fill="#295271"/>
<path d="M174.204 57.4C168.931 57.4 166.339 54.2 163.836 51C161.512 48 159.278 45.2 154.898 45.2C150.518 45.2 148.284 48 145.96 51C143.457 54.1 140.865 57.4 135.592 57.4C130.318 57.4 127.726 54.2 125.223 51C122.899 48 120.665 45.2 116.285 45.2C111.906 45.2 109.671 48 107.347 51C104.844 54.1 102.252 57.4 96.9788 57.4C91.7053 57.4 89.1133 54.2 86.6106 51C84.2867 48 82.0521 45.2 77.6725 45.2C73.2928 45.2 71.0582 48 68.7343 51C66.2316 54.1 63.6396 57.4 58.3661 57.4C53.0926 57.4 50.5005 54.2 48.0872 51C45.7633 48 43.5288 45.2 39.1491 45.2C34.7694 45.2 32.5349 48 30.211 51C27.7083 54.1 25.1162 57.4 19.9321 57.4C14.6586 57.4 12.0665 54.2 9.56387 51C7.23995 48 5.00542 45.2 0.625732 45.2V44C5.89923 44 8.49129 47.2 10.994 50.4C13.3179 53.4 15.5524 56.2 19.9321 56.2C24.3118 56.2 26.5463 53.4 28.8702 50.4C31.2835 47.3 33.7862 44 39.0597 44C44.3332 44 46.9253 47.2 49.3386 50.4C51.6625 53.4 53.897 56.2 58.2767 56.2C62.6564 56.2 64.8909 53.4 67.2148 50.4C69.8069 47.3 72.399 44 77.6725 44C82.946 44 85.538 47.2 88.0407 50.4C90.3646 53.4 92.5991 56.2 96.9788 56.2C101.359 56.2 103.593 53.4 105.917 50.4C108.42 47.3 111.012 44 116.285 44C121.559 44 124.151 47.2 126.653 50.4C128.977 53.4 131.212 56.2 135.592 56.2C139.971 56.2 142.206 53.4 144.53 50.4C147.032 47.3 149.624 44 154.898 44C160.171 44 162.764 47.2 165.266 50.4C167.59 53.4 169.825 56.2 174.204 56.2C178.584 56.2 180.819 53.4 183.142 50.4C185.645 47.3 188.237 44 193.511 44V45.2C189.131 45.2 186.896 48 184.573 51C181.98 54.2 179.478 57.4 174.204 57.4Z" fill="#295271"/>
<path d="M174.204 68.1999C168.931 68.1999 166.339 64.9999 163.836 61.7999C161.512 58.7999 159.278 55.9999 154.898 55.9999C150.518 55.9999 148.284 58.7999 145.96 61.7999C143.457 64.8999 140.865 68.1999 135.592 68.1999C130.318 68.1999 127.726 64.9999 125.223 61.7999C122.899 58.7999 120.665 55.9999 116.285 55.9999C111.905 55.9999 109.671 58.7999 107.347 61.7999C104.844 64.8999 102.252 68.1999 96.9788 68.1999C91.7053 68.1999 89.1132 64.9999 86.6999 61.8999C84.376 58.8999 82.1415 56.0999 77.7618 56.0999C73.3821 56.0999 71.1476 58.8999 68.8237 61.8999C66.321 64.9999 63.7289 68.2999 58.4554 68.2999C53.1819 68.2999 50.5899 65.0999 48.1766 61.8999C45.8527 58.8999 43.6181 56.0999 39.2385 56.0999C34.8588 56.0999 32.6242 58.8999 30.3003 61.8999C27.7976 64.9999 25.2056 68.2999 20.0215 68.2999C14.748 68.2999 12.1559 65.0999 9.65322 61.8999C7.32931 58.8999 5.09477 56.0999 0.715088 56.0999V54.8999C5.98859 54.8999 8.58065 58.0999 11.0833 61.2999C13.4072 64.2999 15.6418 67.0999 20.0215 67.0999C24.4011 67.0999 26.6357 64.2999 28.9596 61.2999C31.4623 58.1999 34.0543 54.8999 39.2385 54.8999C44.512 54.8999 47.104 58.0999 49.5173 61.2999C51.8412 64.2999 54.0758 67.0999 58.4554 67.0999C62.8351 67.0999 65.0697 64.2999 67.3936 61.2999C69.8962 58.1999 72.4883 54.8999 77.7618 54.8999C83.0353 54.8999 85.6274 58.0999 88.13 61.2999C90.454 64.2999 92.6885 67.0999 97.0682 67.0999C101.448 67.0999 103.682 64.2999 106.006 61.2999C108.509 58.1999 111.101 54.8999 116.375 54.8999C121.648 54.8999 124.24 58.0999 126.743 61.2999C129.067 64.2999 131.301 67.0999 135.681 67.0999C140.061 67.0999 142.295 64.2999 144.619 61.2999C147.122 58.1999 149.714 54.8999 154.987 54.8999C160.261 54.8999 162.853 58.0999 165.356 61.2999C167.679 64.2999 169.914 67.0999 174.294 67.0999C178.673 67.0999 180.908 64.2999 183.232 61.2999C185.734 58.1999 188.327 54.8999 193.6 54.8999V56.0999C189.22 56.0999 186.986 58.8999 184.662 61.8999C181.98 64.9999 179.478 68.1999 174.204 68.1999Z" fill="#295271"/>
<path d="M174.204 79.0001C168.931 79.0001 166.339 75.8001 163.836 72.6001C161.512 69.6001 159.278 66.8001 154.898 66.8001C150.518 66.8001 148.284 69.6001 145.96 72.6001C143.457 75.7001 140.865 79.0001 135.592 79.0001C130.318 79.0001 127.726 75.8001 125.223 72.6001C122.899 69.6001 120.665 66.8001 116.285 66.8001C111.906 66.8001 109.671 69.6001 107.347 72.6001C104.844 75.7001 102.252 79.0001 96.9789 79.0001C91.7053 79.0001 89.1133 75.8001 86.6106 72.6001C84.2867 69.6001 82.0522 66.8001 77.6725 66.8001C73.2928 66.8001 71.0583 69.6001 68.7343 72.6001C66.2317 75.7001 63.6396 79.0001 58.3661 79.0001C53.0926 79.0001 50.5005 75.8001 48.0873 72.6001C45.7633 69.6001 43.5288 66.8001 39.1491 66.8001C34.7694 66.8001 32.5349 69.6001 30.211 72.6001C27.6189 75.8001 25.0269 79.0001 19.8427 79.0001C14.5692 79.0001 11.9772 75.8001 9.47451 72.6001C7.1506 69.6001 4.91606 66.8001 0.536377 66.8001V65.6001C5.80988 65.6001 8.40193 68.8001 10.9046 72.0001C13.2285 75.0001 15.4631 77.8001 19.8427 77.8001C24.2224 77.8001 26.457 75.0001 28.7809 72.0001C31.2836 68.9001 33.8756 65.6001 39.0597 65.6001C44.3332 65.6001 46.9253 68.8001 49.3386 72.0001C51.6625 75.0001 53.897 77.8001 58.2767 77.8001C62.6564 77.8001 64.8909 75.0001 67.2149 72.0001C69.7175 68.9001 72.3096 65.6001 77.5831 65.6001C82.8566 65.6001 85.4487 68.8001 87.9513 72.0001C90.2752 75.0001 92.5098 77.8001 96.8895 77.8001C101.269 77.8001 103.504 75.0001 105.828 72.0001C108.33 68.9001 110.922 65.6001 116.196 65.6001C121.469 65.6001 124.061 68.8001 126.564 72.0001C128.888 75.0001 131.123 77.8001 135.502 77.8001C139.882 77.8001 142.116 75.0001 144.44 72.0001C146.943 68.9001 149.535 65.6001 154.809 65.6001C160.082 65.6001 162.674 68.8001 165.177 72.0001C167.501 75.0001 169.735 77.8001 174.115 77.8001C178.495 77.8001 180.729 75.0001 183.053 72.0001C185.556 68.9001 188.148 65.6001 193.421 65.6001V66.8001C189.042 66.8001 186.807 69.6001 184.483 72.6001C181.98 75.8001 179.478 79.0001 174.204 79.0001Z" fill="#295271"/>
<path d="M174.204 89.7999C168.931 89.7999 166.339 86.5999 163.836 83.3999C161.512 80.3999 159.278 77.5999 154.898 77.5999C150.518 77.5999 148.284 80.3999 145.96 83.3999C143.457 86.4999 140.865 89.7999 135.592 89.7999C130.318 89.7999 127.726 86.5999 125.223 83.3999C122.899 80.3999 120.665 77.5999 116.285 77.5999C111.906 77.5999 109.671 80.3999 107.347 83.3999C104.844 86.4999 102.252 89.7999 96.9788 89.7999C91.7053 89.7999 89.1133 86.5999 86.6106 83.3999C84.2867 80.3999 82.0521 77.5999 77.6725 77.5999C73.2928 77.5999 71.0582 80.3999 68.7343 83.3999C66.2316 86.4999 63.6396 89.7999 58.3661 89.7999C53.0926 89.7999 50.5005 86.5999 48.0872 83.3999C45.7633 80.3999 43.5288 77.5999 39.1491 77.5999C34.7694 77.5999 32.5349 80.3999 30.211 83.3999C27.7083 86.4999 25.1162 89.7999 19.9321 89.7999C14.6586 89.7999 12.0665 86.5999 9.56387 83.3999C7.23995 80.3999 5.00542 77.5999 0.625732 77.5999V76.3999C5.89923 76.3999 8.49129 79.5999 10.994 82.7999C13.3179 85.7999 15.5524 88.5999 19.9321 88.5999C24.3118 88.5999 26.5463 85.7999 28.8702 82.7999C31.3729 79.6999 33.965 76.3999 39.1491 76.3999C44.4226 76.3999 47.0147 79.5999 49.4279 82.7999C51.7519 85.7999 53.9864 88.5999 58.3661 88.5999C62.7458 88.5999 64.9803 85.7999 67.3042 82.7999C69.8069 79.6999 72.399 76.3999 77.6725 76.3999C82.946 76.3999 85.538 79.5999 88.0407 82.7999C90.3646 85.7999 92.5991 88.5999 96.9788 88.5999C101.359 88.5999 103.593 85.7999 105.917 82.7999C108.42 79.6999 111.012 76.3999 116.285 76.3999C121.559 76.3999 124.151 79.5999 126.653 82.7999C128.977 85.7999 131.212 88.5999 135.592 88.5999C139.971 88.5999 142.206 85.7999 144.53 82.7999C147.032 79.6999 149.624 76.3999 154.898 76.3999C160.171 76.3999 162.764 79.5999 165.266 82.7999C167.59 85.7999 169.825 88.5999 174.204 88.5999C178.584 88.5999 180.819 85.7999 183.142 82.7999C185.645 79.6999 188.237 76.3999 193.511 76.3999V77.5999C189.131 77.5999 186.896 80.3999 184.573 83.3999C181.98 86.5999 179.478 89.7999 174.204 89.7999Z" fill="#295271"/>
<path d="M174.204 100.6C168.931 100.6 166.339 97.4002 163.836 94.2002C161.512 91.2002 159.278 88.4002 154.898 88.4002C150.518 88.4002 148.284 91.2002 145.96 94.2002C143.457 97.3002 140.865 100.6 135.592 100.6C130.318 100.6 127.726 97.4002 125.223 94.2002C122.899 91.2002 120.665 88.4002 116.285 88.4002C111.906 88.4002 109.671 91.2002 107.347 94.2002C104.844 97.3002 102.252 100.6 96.9788 100.6C91.7053 100.6 89.1133 97.4002 86.6106 94.2002C84.2867 91.2002 82.0521 88.4002 77.6725 88.4002C73.2928 88.4002 71.0582 91.2002 68.7343 94.2002C66.2316 97.3002 63.6396 100.6 58.3661 100.6C53.0926 100.6 50.5005 97.4002 48.0872 94.2002C45.7633 91.2002 43.5288 88.4002 39.1491 88.4002C34.7694 88.4002 32.5349 91.2002 30.211 94.2002C27.7083 97.3002 25.1162 100.6 19.9321 100.6C14.6586 100.6 12.0665 97.4002 9.56387 94.2002C7.23995 91.2002 5.00542 88.4002 0.625732 88.4002V87.2002C5.89923 87.2002 8.49129 90.4002 10.994 93.6002C13.3179 96.6002 15.5524 99.4002 19.9321 99.4002C24.3118 99.4002 26.5463 96.6002 28.8702 93.6002C31.3729 90.5002 33.965 87.2002 39.1491 87.2002C44.4226 87.2002 47.0147 90.4002 49.4279 93.6002C51.7519 96.6002 53.9864 99.4002 58.3661 99.4002C62.7458 99.4002 64.9803 96.6002 67.3042 93.6002C69.8069 90.5002 72.399 87.2002 77.6725 87.2002C82.946 87.2002 85.538 90.4002 88.0407 93.6002C90.3646 96.6002 92.5991 99.4002 96.9788 99.4002C101.359 99.4002 103.593 96.6002 105.917 93.6002C108.42 90.5002 111.012 87.2002 116.285 87.2002C121.559 87.2002 124.151 90.4002 126.653 93.6002C128.977 96.6002 131.212 99.4002 135.592 99.4002C139.971 99.4002 142.206 96.6002 144.53 93.6002C147.032 90.5002 149.624 87.2002 154.898 87.2002C160.171 87.2002 162.764 90.4002 165.266 93.6002C167.59 96.6002 169.825 99.4002 174.204 99.4002C178.584 99.4002 180.819 96.6002 183.142 93.6002C185.645 90.5002 188.237 87.2002 193.511 87.2002V88.4002C189.131 88.4002 186.896 91.2002 184.573 94.2002C181.98 97.4002 179.478 100.6 174.204 100.6Z" fill="#295271"/>
<path d="M174.204 111.4C168.931 111.4 166.339 108.2 163.836 105C161.512 102 159.278 99.2 154.898 99.2C150.518 99.2 148.284 102 145.96 105C143.457 108.1 140.865 111.4 135.592 111.4C130.318 111.4 127.726 108.2 125.223 105C122.899 102 120.665 99.2 116.285 99.2C111.906 99.2 109.671 102 107.347 105C104.844 108.1 102.252 111.4 96.9788 111.4C91.7053 111.4 89.1133 108.2 86.6106 105C84.2867 102 82.0521 99.2 77.6725 99.2C73.2928 99.2 71.0582 102 68.7343 105C66.2316 108.1 63.6396 111.4 58.3661 111.4C53.0926 111.4 50.5005 108.2 48.0872 105C45.7633 102 43.5288 99.2 39.1491 99.2C34.7694 99.2 32.5349 102 30.211 105C27.7083 108.1 25.1162 111.4 19.9321 111.4C14.6586 111.4 12.0665 108.2 9.56387 105C7.23995 102 5.00542 99.2 0.625732 99.2V98C5.89923 98 8.49129 101.2 10.994 104.4C13.3179 107.4 15.5524 110.2 19.9321 110.2C24.3118 110.2 26.5463 107.4 28.8702 104.4C31.3729 101.3 33.965 98 39.1491 98C44.4226 98 47.0147 101.2 49.4279 104.4C51.7519 107.4 53.9864 110.2 58.3661 110.2C62.7458 110.2 64.9803 107.4 67.3042 104.4C69.8069 101.3 72.399 98 77.6725 98C82.946 98 85.538 101.2 88.0407 104.4C90.3646 107.4 92.5991 110.2 96.9788 110.2C101.359 110.2 103.593 107.4 105.917 104.4C108.42 101.3 111.012 98 116.285 98C121.559 98 124.151 101.2 126.653 104.4C128.977 107.4 131.212 110.2 135.592 110.2C139.971 110.2 142.206 107.4 144.53 104.4C147.032 101.3 149.624 98 154.898 98C160.171 98 162.764 101.2 165.266 104.4C167.59 107.4 169.825 110.2 174.204 110.2C178.584 110.2 180.819 107.4 183.142 104.4C185.645 101.3 188.237 98 193.511 98V99.2C189.131 99.2 186.896 102 184.573 105C181.98 108.2 179.478 111.4 174.204 111.4Z" fill="#295271"/>
<path d="M174.204 122.2C168.931 122.2 166.339 119 163.836 115.8C161.512 112.8 159.278 110 154.898 110C150.518 110 148.284 112.8 145.96 115.8C143.457 118.9 140.865 122.2 135.592 122.2C130.318 122.2 127.726 119 125.223 115.8C122.899 112.8 120.665 110 116.285 110C111.906 110 109.671 112.8 107.347 115.8C104.844 118.9 102.252 122.2 96.9788 122.2C91.7053 122.2 89.1133 119 86.6106 115.8C84.2867 112.8 82.0521 110 77.6725 110C73.2928 110 71.0582 112.8 68.7343 115.8C66.2316 118.9 63.6396 122.2 58.3661 122.2C53.0926 122.2 50.5005 119 48.0872 115.8C45.7633 112.8 43.5288 110 39.1491 110C34.7694 110 32.5349 112.8 30.211 115.8C27.7083 118.9 25.1162 122.2 19.9321 122.2C14.6586 122.2 12.0665 119 9.56387 115.8C7.23995 112.8 5.00542 110 0.625732 110V108.8C5.89923 108.8 8.49129 112 10.994 115.2C13.3179 118.2 15.5524 121 19.9321 121C24.3118 121 26.5463 118.2 28.8702 115.2C31.3729 112.1 33.965 108.8 39.1491 108.8C44.4226 108.8 47.0147 112 49.4279 115.2C51.7519 118.2 53.9864 121 58.3661 121C62.7458 121 64.9803 118.2 67.3042 115.2C69.8069 112.1 72.399 108.8 77.6725 108.8C82.946 108.8 85.538 112 88.0407 115.2C90.3646 118.2 92.5991 121 96.9788 121C101.359 121 103.593 118.2 105.917 115.2C108.42 112.1 111.012 108.8 116.285 108.8C121.559 108.8 124.151 112 126.653 115.2C128.977 118.2 131.212 121 135.592 121C139.971 121 142.206 118.2 144.53 115.2C147.032 112.1 149.624 108.8 154.898 108.8C160.171 108.8 162.764 112 165.266 115.2C167.59 118.2 169.825 121 174.204 121C178.584 121 180.819 118.2 183.142 115.2C185.645 112.1 188.237 108.8 193.511 108.8V110C189.131 110 186.896 112.8 184.573 115.8C181.98 119 179.478 122.2 174.204 122.2Z" fill="#295271"/>
<path d="M173.668 13.4C168.394 13.4 165.802 10.2 163.3 7C160.976 4 158.741 1.2 154.362 1.2C149.982 1.2 147.747 4 145.423 7C142.921 10.1 140.329 13.4 135.055 13.4C129.782 13.4 127.19 10.2 124.687 7C122.363 4 120.129 1.2 115.749 1.2C111.369 1.2 109.135 4 106.811 7C104.308 10.1 101.716 13.4 96.4425 13.4C91.169 13.4 88.6663 10.2 86.1636 7C83.8397 4 81.6052 1.2 77.2255 1.2C72.7564 1.2 70.6113 4 68.198 7C65.6953 10.1 63.1032 13.4 57.8297 13.4C52.5562 13.4 49.9642 10.2 47.5509 7C45.227 4 42.9924 1.2 38.6127 1.2C34.2331 1.2 31.9985 4 29.6746 7C27.1719 10.1 24.5799 13.4 19.3958 13.4C14.1223 13.4 11.5302 10.2 9.02752 7C6.61422 4 4.37969 1.2 0 1.2V0C5.2735 0 7.86556 3.2 10.3682 6.4C12.6922 9.4 14.9267 12.2 19.3064 12.2C23.6861 12.2 25.9206 9.4 28.2445 6.4C30.7472 3.2 33.3392 0 38.6127 0C43.8862 0 46.4783 3.2 48.8916 6.4C51.2155 9.4 53.45 12.2 57.8297 12.2C62.2094 12.2 64.4439 9.4 66.7679 6.4C69.3599 3.2 71.952 0 77.1361 0C82.4096 0 85.0017 3.2 87.5043 6.4C89.8283 9.4 92.0628 12.2 96.4425 12.2C100.822 12.2 103.057 9.4 105.381 6.4C107.883 3.3 110.475 0 115.749 0C121.022 0 123.614 3.2 126.117 6.4C128.441 9.4 130.676 12.2 135.055 12.2C139.435 12.2 141.669 9.4 143.993 6.4C146.496 3.3 149.088 0 154.362 0C159.635 0 162.227 3.2 164.73 6.4C167.054 9.4 169.288 12.2 173.668 12.2C178.048 12.2 180.282 9.4 182.606 6.4C185.109 3.2 187.701 0 192.974 0V1.2C188.595 1.2 186.36 4 184.036 7C181.534 10.2 178.941 13.4 173.668 13.4Z" fill="#295271"/>
<path d="M173.668 24.1998C168.394 24.1998 165.802 20.9998 163.3 17.7998C160.976 14.7998 158.741 11.9998 154.362 11.9998C149.982 11.9998 147.747 14.7998 145.423 17.7998C142.921 20.8998 140.329 24.1998 135.055 24.1998C129.782 24.1998 127.19 20.9998 124.687 17.7998C122.363 14.7998 120.129 11.9998 115.749 11.9998C111.369 11.9998 109.135 14.7998 106.811 17.7998C104.308 20.8998 101.716 24.1998 96.4425 24.1998C91.169 24.1998 88.5769 20.9998 86.0742 17.7998C83.7503 14.7998 81.5158 11.9998 77.1361 11.9998C72.7564 11.9998 70.5219 14.7998 68.198 17.7998C65.6953 20.8998 63.1032 24.1998 57.8297 24.1998C52.5562 24.1998 49.9642 20.9998 47.5509 17.7998C45.227 14.7998 42.9924 11.9998 38.6127 11.9998C34.2331 11.9998 31.9985 14.7998 29.6746 17.7998C27.1719 20.8998 24.5799 24.1998 19.3958 24.1998C14.1223 24.1998 11.5302 20.9998 9.02752 17.7998C6.61422 14.7998 4.37969 11.9998 0 11.9998V10.7998C5.2735 10.7998 7.86556 13.9998 10.3682 17.1998C12.6922 20.1998 14.9267 22.9998 19.3064 22.9998C23.6861 22.9998 25.9206 20.1998 28.2445 17.1998C30.7472 14.0998 33.3392 10.7998 38.5234 10.7998C43.7969 10.7998 46.3889 13.9998 48.8022 17.1998C51.1261 20.1998 53.3607 22.9998 57.7403 22.9998C62.12 22.9998 64.3546 20.1998 66.6785 17.1998C69.1812 14.0998 71.7732 10.7998 77.0467 10.7998C82.3202 10.7998 84.9123 13.9998 87.415 17.1998C89.7389 20.1998 91.9734 22.9998 96.3531 22.9998C100.733 22.9998 102.967 20.1998 105.291 17.1998C107.794 14.0998 110.386 10.7998 115.659 10.7998C120.933 10.7998 123.525 13.9998 126.028 17.1998C128.352 20.1998 130.586 22.9998 134.966 22.9998C139.346 22.9998 141.58 20.1998 143.904 17.1998C146.407 14.0998 148.999 10.7998 154.272 10.7998C159.546 10.7998 162.138 13.9998 164.64 17.1998C166.964 20.1998 169.199 22.9998 173.579 22.9998C177.958 22.9998 180.193 20.1998 182.517 17.1998C185.019 14.0998 187.611 10.7998 192.885 10.7998V11.9998C188.505 11.9998 186.271 14.7998 183.947 17.7998C181.534 20.8998 178.941 24.1998 173.668 24.1998Z" fill="#295271"/>
<path d="M173.668 35.0001C168.394 35.0001 165.802 31.8001 163.3 28.6001C160.976 25.6001 158.741 22.8001 154.362 22.8001C149.982 22.8001 147.747 25.6001 145.423 28.6001C142.921 31.7001 140.329 35.0001 135.055 35.0001C129.782 35.0001 127.19 31.8001 124.687 28.6001C122.363 25.6001 120.128 22.8001 115.749 22.8001C111.369 22.8001 109.135 25.6001 106.811 28.6001C104.308 31.7001 101.716 35.0001 96.4424 35.0001C91.1689 35.0001 88.5769 31.8001 86.0742 28.6001C83.7503 25.6001 81.5158 22.8001 77.1361 22.8001C72.7564 22.8001 70.5219 25.6001 68.1979 28.6001C65.6953 31.7001 63.1032 35.0001 57.8297 35.0001C52.5562 35.0001 49.9641 31.8001 47.5508 28.6001C45.2269 25.6001 42.9924 22.8001 38.6127 22.8001C34.233 22.8001 31.9985 25.6001 29.6746 28.6001C27.1719 31.7001 24.5798 35.0001 19.3957 35.0001C14.1222 35.0001 11.5302 31.8001 9.02749 28.6001C6.70358 25.6001 4.46904 22.8001 0.0893555 22.8001V21.6001C5.36285 21.6001 7.95491 24.8001 10.4576 28.0001C12.7815 31.0001 15.016 33.8001 19.3957 33.8001C23.7754 33.8001 26.0099 31.0001 28.3339 28.0001C30.8365 24.9001 33.4286 21.6001 38.6127 21.6001C43.8862 21.6001 46.4783 24.8001 48.8916 28.0001C51.2155 31.0001 53.45 33.8001 57.8297 33.8001C62.2094 33.8001 64.4439 31.0001 66.7678 28.0001C69.2705 24.9001 71.8626 21.6001 77.1361 21.6001C82.4096 21.6001 85.0016 24.8001 87.5043 28.0001C89.8282 31.0001 92.0628 33.8001 96.4424 33.8001C100.822 33.8001 103.057 31.0001 105.381 28.0001C107.883 24.9001 110.475 21.6001 115.749 21.6001C121.022 21.6001 123.614 24.8001 126.117 28.0001C128.441 31.0001 130.675 33.8001 135.055 33.8001C139.435 33.8001 141.669 31.0001 143.993 28.0001C146.496 24.9001 149.088 21.6001 154.362 21.6001C159.635 21.6001 162.227 24.8001 164.73 28.0001C167.054 31.0001 169.288 33.8001 173.668 33.8001C178.048 33.8001 180.282 31.0001 182.606 28.0001C185.109 24.9001 187.701 21.6001 192.974 21.6001V22.8001C188.595 22.8001 186.36 25.6001 184.036 28.6001C181.533 31.7001 178.941 35.0001 173.668 35.0001Z" fill="#295271"/>
<path d="M173.668 45.7999C168.394 45.7999 165.802 42.5999 163.3 39.3999C160.976 36.3999 158.741 33.5999 154.362 33.5999C149.982 33.5999 147.747 36.3999 145.423 39.3999C142.921 42.4999 140.329 45.7999 135.055 45.7999C129.782 45.7999 127.19 42.5999 124.687 39.3999C122.363 36.3999 120.128 33.5999 115.749 33.5999C111.369 33.5999 109.135 36.3999 106.811 39.3999C104.308 42.4999 101.716 45.7999 96.4424 45.7999C91.1689 45.7999 88.5769 42.5999 86.0742 39.3999C83.7503 36.3999 81.5158 33.5999 77.1361 33.5999C72.7564 33.5999 70.5219 36.3999 68.1979 39.3999C65.6953 42.4999 63.1032 45.7999 57.8297 45.7999C52.5562 45.7999 49.9641 42.5999 47.5508 39.3999C45.2269 36.3999 42.9924 33.5999 38.6127 33.5999C34.233 33.5999 31.9985 36.3999 29.6746 39.3999C27.1719 42.4999 24.5798 45.7999 19.3957 45.7999C14.1222 45.7999 11.5302 42.5999 9.02749 39.3999C6.70358 36.3999 4.46904 33.5999 0.0893555 33.5999V32.3999C5.36285 32.3999 7.95491 35.5999 10.4576 38.7999C12.7815 41.7999 15.016 44.5999 19.3957 44.5999C23.7754 44.5999 26.0099 41.7999 28.3339 38.7999C30.8365 35.6999 33.4286 32.3999 38.6127 32.3999C43.8862 32.3999 46.4783 35.5999 48.8916 38.7999C51.2155 41.7999 53.45 44.5999 57.8297 44.5999C62.2094 44.5999 64.4439 41.7999 66.7678 38.7999C69.2705 35.6999 71.8626 32.3999 77.1361 32.3999C82.4096 32.3999 85.0016 35.5999 87.5043 38.7999C89.8282 41.7999 92.0628 44.5999 96.4424 44.5999C100.822 44.5999 103.057 41.7999 105.381 38.7999C107.883 35.6999 110.475 32.3999 115.749 32.3999C121.022 32.3999 123.614 35.5999 126.117 38.7999C128.441 41.7999 130.675 44.5999 135.055 44.5999C139.435 44.5999 141.669 41.7999 143.993 38.7999C146.496 35.6999 149.088 32.3999 154.362 32.3999C159.635 32.3999 162.227 35.5999 164.73 38.7999C167.054 41.7999 169.288 44.5999 173.668 44.5999C178.048 44.5999 180.282 41.7999 182.606 38.7999C185.109 35.6999 187.701 32.3999 192.974 32.3999V33.5999C188.595 33.5999 186.36 36.3999 184.036 39.3999C181.533 42.4999 178.941 45.7999 173.668 45.7999Z" fill="#295271"/>
<path d="M173.668 56.6002C168.394 56.6002 165.802 53.4002 163.3 50.2002C160.976 47.2002 158.741 44.4002 154.362 44.4002C149.982 44.4002 147.747 47.2002 145.423 50.2002C142.921 53.3002 140.329 56.6002 135.055 56.6002C129.782 56.6002 127.19 53.4002 124.687 50.2002C122.363 47.2002 120.128 44.4002 115.749 44.4002C111.369 44.4002 109.135 47.2002 106.811 50.2002C104.308 53.3002 101.716 56.6002 96.4424 56.6002C91.1689 56.6002 88.5769 53.4002 86.0742 50.2002C83.7503 47.2002 81.5158 44.4002 77.1361 44.4002C72.7564 44.4002 70.5219 47.2002 68.1979 50.2002C65.6953 53.3002 63.1032 56.6002 57.8297 56.6002C52.5562 56.6002 49.9641 53.4002 47.5508 50.2002C45.2269 47.2002 42.9924 44.4002 38.6127 44.4002C34.233 44.4002 31.9985 47.2002 29.6746 50.2002C27.1719 53.3002 24.5798 56.6002 19.3957 56.6002C14.1222 56.6002 11.5302 53.4002 9.02749 50.2002C6.70358 47.2002 4.46904 44.4002 0.0893555 44.4002V43.2002C5.36285 43.2002 7.95491 46.4002 10.4576 49.6002C12.7815 52.6002 15.016 55.4002 19.3957 55.4002C23.7754 55.4002 26.0099 52.6002 28.3339 49.6002C30.8365 46.5002 33.4286 43.2002 38.6127 43.2002C43.8862 43.2002 46.4783 46.4002 48.8916 49.6002C51.2155 52.6002 53.45 55.4002 57.8297 55.4002C62.2094 55.4002 64.4439 52.6002 66.7678 49.6002C69.2705 46.5002 71.8626 43.2002 77.1361 43.2002C82.4096 43.2002 85.0016 46.4002 87.5043 49.6002C89.8282 52.6002 92.0628 55.4002 96.4424 55.4002C100.822 55.4002 103.057 52.6002 105.381 49.6002C107.883 46.5002 110.475 43.2002 115.749 43.2002C121.022 43.2002 123.614 46.4002 126.117 49.6002C128.441 52.6002 130.675 55.4002 135.055 55.4002C139.435 55.4002 141.669 52.6002 143.993 49.6002C146.496 46.5002 149.088 43.2002 154.362 43.2002C159.635 43.2002 162.227 46.4002 164.73 49.6002C167.054 52.6002 169.288 55.4002 173.668 55.4002C178.048 55.4002 180.282 52.6002 182.606 49.6002C185.109 46.5002 187.701 43.2002 192.974 43.2002V44.4002C188.595 44.4002 186.36 47.2002 184.036 50.2002C181.533 53.3002 178.941 56.6002 173.668 56.6002Z" fill="#295271"/>
<path d="M173.668 67.4C168.394 67.4 165.802 64.2 163.3 61C160.976 58 158.741 55.2 154.362 55.2C149.982 55.2 147.747 58 145.423 61C142.921 64.1 140.329 67.4 135.055 67.4C129.782 67.4 127.19 64.2 124.687 61C122.363 58 120.128 55.2 115.749 55.2C111.369 55.2 109.135 58 106.811 61C104.308 64.1 101.716 67.4 96.4424 67.4C91.1689 67.4 88.5769 64.2 86.0742 61C83.7503 58 81.5158 55.2 77.1361 55.2C72.7564 55.2 70.5219 58 68.1979 61C65.6953 64.1 63.1032 67.4 57.8297 67.4C52.5562 67.4 49.9641 64.2 47.5508 61C45.2269 58 42.9924 55.2 38.6127 55.2C34.233 55.2 31.9985 58 29.6746 61C27.1719 64.1 24.5798 67.4 19.3957 67.4C14.1222 67.4 11.5302 64.2 9.02749 61C6.70358 58 4.46904 55.2 0.0893555 55.2V54C5.36285 54 7.95491 57.2 10.4576 60.4C12.7815 63.4 15.016 66.2 19.3957 66.2C23.7754 66.2 26.0099 63.4 28.3339 60.4C30.8365 57.3 33.4286 54 38.6127 54C43.8862 54 46.4783 57.2 48.8916 60.4C51.2155 63.4 53.45 66.2 57.8297 66.2C62.2094 66.2 64.4439 63.4 66.7678 60.4C69.2705 57.3 71.8626 54 77.1361 54C82.4096 54 85.0016 57.2 87.5043 60.4C89.8282 63.4 92.0628 66.2 96.4424 66.2C100.822 66.2 103.057 63.4 105.381 60.4C107.883 57.3 110.475 54 115.749 54C121.022 54 123.614 57.2 126.117 60.4C128.441 63.4 130.675 66.2 135.055 66.2C139.435 66.2 141.669 63.4 143.993 60.4C146.496 57.3 149.088 54 154.362 54C159.635 54 162.227 57.2 164.73 60.4C167.054 63.4 169.288 66.2 173.668 66.2C178.048 66.2 180.282 63.4 182.606 60.4C185.109 57.3 187.701 54 192.974 54V55.2C188.595 55.2 186.36 58 184.036 61C181.533 64.1 178.941 67.4 173.668 67.4Z" fill="#295271"/>
<path d="M173.668 78.1998C168.394 78.1998 165.802 74.9998 163.3 71.7998C160.976 68.7998 158.741 65.9998 154.362 65.9998C149.982 65.9998 147.747 68.7998 145.423 71.7998C142.921 74.8998 140.329 78.1998 135.055 78.1998C129.782 78.1998 127.19 74.9998 124.687 71.7998C122.363 68.7998 120.129 65.9998 115.749 65.9998C111.369 65.9998 109.135 68.7998 106.811 71.7998C104.308 74.8998 101.716 78.1998 96.4425 78.1998C91.169 78.1998 88.5769 74.9998 86.0742 71.7998C83.7503 68.7998 81.5158 65.9998 77.1361 65.9998C72.7564 65.9998 70.5219 68.7998 68.198 71.7998C65.6953 74.8998 63.1032 78.1998 57.8297 78.1998C52.5562 78.1998 49.9642 74.9998 47.5509 71.7998C45.227 68.7998 42.9924 65.9998 38.6127 65.9998C34.2331 65.9998 31.9985 68.7998 29.6746 71.7998C27.1719 74.8998 24.5799 78.1998 19.3958 78.1998C14.1223 78.1998 11.5302 74.9998 9.02752 71.7998C6.61422 68.7998 4.37969 65.9998 0 65.9998V64.7998C5.2735 64.7998 7.86556 67.9998 10.3682 71.1998C12.6922 74.1998 14.9267 76.9998 19.3064 76.9998C23.6861 76.9998 25.9206 74.1998 28.2445 71.1998C30.7472 68.0998 33.3392 64.7998 38.5234 64.7998C43.7969 64.7998 46.3889 67.9998 48.8022 71.1998C51.1261 74.1998 53.3607 76.9998 57.7403 76.9998C62.12 76.9998 64.3546 74.1998 66.6785 71.1998C69.1812 68.0998 71.7732 64.7998 77.0467 64.7998C82.3202 64.7998 84.9123 67.9998 87.415 71.1998C89.7389 74.1998 91.9734 76.9998 96.3531 76.9998C100.733 76.9998 102.967 74.1998 105.291 71.1998C107.794 68.0998 110.386 64.7998 115.659 64.7998C120.933 64.7998 123.525 67.9998 126.028 71.1998C128.352 74.1998 130.586 76.9998 134.966 76.9998C139.346 76.9998 141.58 74.1998 143.904 71.1998C146.407 68.0998 148.999 64.7998 154.272 64.7998C159.546 64.7998 162.138 67.9998 164.64 71.1998C166.964 74.1998 169.199 76.9998 173.579 76.9998C177.958 76.9998 180.193 74.1998 182.517 71.1998C185.019 68.0998 187.611 64.7998 192.885 64.7998V65.9998C188.505 65.9998 186.271 68.7998 183.947 71.7998C181.534 74.8998 178.941 78.1998 173.668 78.1998Z" fill="#295271"/>
<path d="M173.668 89.0001C168.394 89.0001 165.802 85.8001 163.3 82.6001C160.976 79.6001 158.741 76.8001 154.362 76.8001C149.982 76.8001 147.747 79.6001 145.423 82.6001C142.921 85.7001 140.329 89.0001 135.055 89.0001C129.782 89.0001 127.19 85.8001 124.687 82.6001C122.363 79.6001 120.128 76.8001 115.749 76.8001C111.369 76.8001 109.135 79.6001 106.811 82.6001C104.308 85.7001 101.716 89.0001 96.4424 89.0001C91.1689 89.0001 88.5769 85.8001 86.0742 82.6001C83.7503 79.6001 81.5158 76.8001 77.1361 76.8001C72.7564 76.8001 70.5219 79.6001 68.1979 82.6001C65.6953 85.7001 63.1032 89.0001 57.8297 89.0001C52.5562 89.0001 49.9641 85.8001 47.5508 82.6001C45.2269 79.6001 42.9924 76.8001 38.6127 76.8001C34.233 76.8001 31.9985 79.6001 29.6746 82.6001C27.1719 85.7001 24.5798 89.0001 19.3957 89.0001C14.1222 89.0001 11.5302 85.8001 9.02749 82.6001C6.70358 79.6001 4.46904 76.8001 0.0893555 76.8001V75.6001C5.36285 75.6001 7.95491 78.8001 10.4576 82.0001C12.7815 85.0001 15.016 87.8001 19.3957 87.8001C23.7754 87.8001 26.0099 85.0001 28.3339 82.0001C30.8365 78.9001 33.4286 75.6001 38.6127 75.6001C43.8862 75.6001 46.4783 78.8001 48.8916 82.0001C51.2155 85.0001 53.45 87.8001 57.8297 87.8001C62.2094 87.8001 64.4439 85.0001 66.7678 82.0001C69.2705 78.9001 71.8626 75.6001 77.1361 75.6001C82.4096 75.6001 85.0016 78.8001 87.5043 82.0001C89.8282 85.0001 92.0628 87.8001 96.4424 87.8001C100.822 87.8001 103.057 85.0001 105.381 82.0001C107.883 78.9001 110.475 75.6001 115.749 75.6001C121.022 75.6001 123.614 78.8001 126.117 82.0001C128.441 85.0001 130.675 87.8001 135.055 87.8001C139.435 87.8001 141.669 85.0001 143.993 82.0001C146.496 78.9001 149.088 75.6001 154.362 75.6001C159.635 75.6001 162.227 78.8001 164.73 82.0001C167.054 85.0001 169.288 87.8001 173.668 87.8001C178.048 87.8001 180.282 85.0001 182.606 82.0001C185.109 78.9001 187.701 75.6001 192.974 75.6001V76.8001C188.595 76.8001 186.36 79.6001 184.036 82.6001C181.533 85.7001 178.941 89.0001 173.668 89.0001Z" fill="#295271"/>
<path d="M173.668 99.7999C168.394 99.7999 165.802 96.5999 163.3 93.3999C160.976 90.3999 158.741 87.5999 154.362 87.5999C149.982 87.5999 147.747 90.3999 145.423 93.3999C142.921 96.4999 140.329 99.7999 135.055 99.7999C129.782 99.7999 127.19 96.5999 124.687 93.3999C122.363 90.3999 120.128 87.5999 115.749 87.5999C111.369 87.5999 109.135 90.3999 106.811 93.3999C104.308 96.4999 101.716 99.7999 96.4424 99.7999C91.1689 99.7999 88.5769 96.5999 86.0742 93.3999C83.7503 90.3999 81.5158 87.5999 77.1361 87.5999C72.7564 87.5999 70.5219 90.3999 68.1979 93.3999C65.6953 96.4999 63.1032 99.7999 57.8297 99.7999C52.5562 99.7999 49.9641 96.5999 47.5508 93.3999C45.2269 90.3999 42.9924 87.5999 38.6127 87.5999C34.233 87.5999 31.9985 90.3999 29.6746 93.3999C27.1719 96.4999 24.5798 99.7999 19.3957 99.7999C14.1222 99.7999 11.5302 96.5999 9.02749 93.3999C6.70358 90.3999 4.46904 87.5999 0.0893555 87.5999V86.3999C5.36285 86.3999 7.95491 89.5999 10.4576 92.7999C12.7815 95.7999 15.016 98.5999 19.3957 98.5999C23.7754 98.5999 26.0099 95.7999 28.3339 92.7999C30.8365 89.6999 33.4286 86.3999 38.6127 86.3999C43.8862 86.3999 46.4783 89.5999 48.8916 92.7999C51.2155 95.7999 53.45 98.5999 57.8297 98.5999C62.2094 98.5999 64.4439 95.7999 66.7678 92.7999C69.2705 89.6999 71.8626 86.3999 77.1361 86.3999C82.4096 86.3999 85.0016 89.5999 87.5043 92.7999C89.8282 95.7999 92.0628 98.5999 96.4424 98.5999C100.822 98.5999 103.057 95.7999 105.381 92.7999C107.883 89.6999 110.475 86.3999 115.749 86.3999C121.022 86.3999 123.614 89.5999 126.117 92.7999C128.441 95.7999 130.675 98.5999 135.055 98.5999C139.435 98.5999 141.669 95.7999 143.993 92.7999C146.496 89.6999 149.088 86.3999 154.362 86.3999C159.635 86.3999 162.227 89.5999 164.73 92.7999C167.054 95.7999 169.288 98.5999 173.668 98.5999C178.048 98.5999 180.282 95.7999 182.606 92.7999C185.109 89.6999 187.701 86.3999 192.974 86.3999V87.5999C188.595 87.5999 186.36 90.3999 184.036 93.3999C181.533 96.4999 178.941 99.7999 173.668 99.7999Z" fill="#295271"/>
<path d="M173.668 110.6C168.394 110.6 165.802 107.4 163.3 104.2C160.976 101.2 158.741 98.4002 154.362 98.4002C149.982 98.4002 147.747 101.2 145.423 104.2C142.921 107.3 140.329 110.6 135.055 110.6C129.782 110.6 127.19 107.4 124.687 104.2C122.363 101.2 120.128 98.4002 115.749 98.4002C111.369 98.4002 109.135 101.2 106.811 104.2C104.308 107.3 101.716 110.6 96.4424 110.6C91.1689 110.6 88.5769 107.4 86.0742 104.2C83.7503 101.2 81.5158 98.4002 77.1361 98.4002C72.7564 98.4002 70.5219 101.2 68.1979 104.2C65.6953 107.3 63.1032 110.6 57.8297 110.6C52.5562 110.6 49.9641 107.4 47.5508 104.2C45.2269 101.2 42.9924 98.4002 38.6127 98.4002C34.233 98.4002 31.9985 101.2 29.6746 104.2C27.1719 107.3 24.5798 110.6 19.3957 110.6C14.1222 110.6 11.5302 107.4 9.02749 104.2C6.70358 101.2 4.46904 98.4002 0.0893555 98.4002V97.2002C5.36285 97.2002 7.95491 100.4 10.4576 103.6C12.7815 106.6 15.016 109.4 19.3957 109.4C23.7754 109.4 26.0099 106.6 28.3339 103.6C30.8365 100.5 33.4286 97.2002 38.6127 97.2002C43.8862 97.2002 46.4783 100.4 48.8916 103.6C51.2155 106.6 53.45 109.4 57.8297 109.4C62.2094 109.4 64.4439 106.6 66.7678 103.6C69.2705 100.5 71.8626 97.2002 77.1361 97.2002C82.4096 97.2002 85.0016 100.4 87.5043 103.6C89.8282 106.6 92.0628 109.4 96.4424 109.4C100.822 109.4 103.057 106.6 105.381 103.6C107.883 100.5 110.475 97.2002 115.749 97.2002C121.022 97.2002 123.614 100.4 126.117 103.6C128.441 106.6 130.675 109.4 135.055 109.4C139.435 109.4 141.669 106.6 143.993 103.6C146.496 100.5 149.088 97.2002 154.362 97.2002C159.635 97.2002 162.227 100.4 164.73 103.6C167.054 106.6 169.288 109.4 173.668 109.4C178.048 109.4 180.282 106.6 182.606 103.6C185.109 100.5 187.701 97.2002 192.974 97.2002V98.4002C188.595 98.4002 186.36 101.2 184.036 104.2C181.533 107.3 178.941 110.6 173.668 110.6Z" fill="#295271"/>
<path d="M173.668 121.3C168.394 121.3 165.802 118.1 163.3 114.9C160.976 111.9 158.741 109.1 154.362 109.1C149.982 109.1 147.747 111.9 145.423 114.9C142.921 118 140.329 121.3 135.055 121.3C129.782 121.3 127.19 118.1 124.687 114.9C122.363 111.9 120.128 109.1 115.749 109.1C111.369 109.1 109.135 111.9 106.811 114.9C104.308 118 101.716 121.3 96.4424 121.3C91.1689 121.3 88.5769 118.1 86.0742 114.9C83.7503 111.9 81.5158 109.1 77.1361 109.1C72.7564 109.1 70.5219 111.9 68.1979 114.9C65.6953 118 63.1032 121.3 57.8297 121.3C52.5562 121.3 49.9641 118.1 47.5508 114.9C45.2269 111.9 42.9924 109.1 38.6127 109.1C34.233 109.1 31.9985 111.9 29.6746 114.9C27.1719 118 24.5798 121.3 19.3957 121.3C14.1222 121.3 11.5302 118.1 9.02749 114.9C6.70358 111.9 4.46904 109.1 0.0893555 109.1V107.9C5.36285 107.9 7.95491 111.1 10.4576 114.3C12.7815 117.3 15.016 120.1 19.3957 120.1C23.7754 120.1 26.0099 117.3 28.3339 114.3C30.8365 111.2 33.4286 107.9 38.6127 107.9C43.8862 107.9 46.4783 111.1 48.8916 114.3C51.2155 117.3 53.45 120.1 57.8297 120.1C62.2094 120.1 64.4439 117.3 66.7678 114.3C69.2705 111.2 71.8626 107.9 77.1361 107.9C82.4096 107.9 85.0016 111.1 87.5043 114.3C89.8282 117.3 92.0628 120.1 96.4424 120.1C100.822 120.1 103.057 117.3 105.381 114.3C107.883 111.2 110.475 107.9 115.749 107.9C121.022 107.9 123.614 111.1 126.117 114.3C128.441 117.3 130.675 120.1 135.055 120.1C139.435 120.1 141.669 117.3 143.993 114.3C146.496 111.2 149.088 107.9 154.362 107.9C159.635 107.9 162.227 111.1 164.73 114.3C167.054 117.3 169.288 120.1 173.668 120.1C178.048 120.1 180.282 117.3 182.606 114.3C185.109 111.2 187.701 107.9 192.974 107.9V109.1C188.595 109.1 186.36 111.9 184.036 114.9C181.533 118.1 178.941 121.3 173.668 121.3Z" fill="#295271"/>
</g>
</svg>
